<svg width="719" height="697" viewBox="0 0 719 697" fill="none" xmlns="http://www.w3.org/2000/svg">
<mask id="path-1-inside-1_7_249" fill="white">
<path fill-rule="evenodd" clip-rule="evenodd" d="M337 1.48299C318.332 2.70499 303.852 4.37399 296.5 6.15099C294.3 6.68299 289.125 7.76499 285 8.55599C280.875 9.34699 274.125 10.914 270 12.038C265.875 13.163 260.925 14.483 259 14.972C255.823 15.78 242.506 20.312 231 24.502C228.525 25.403 226.072 26.559 225.55 27.07C225.027 27.582 223.767 28 222.748 28C221.73 28 219.232 28.884 217.198 29.964C215.164 31.043 208.325 34.425 202 37.479C195.675 40.532 187.8 44.581 184.5 46.476C181.2 48.372 176.714 50.899 174.531 52.093C172.348 53.287 169.423 55.049 168.031 56.008C166.639 56.967 162.199 59.893 158.164 62.51C154.13 65.126 150.08 68.029 149.164 68.959C148.249 69.889 145.925 71.608 144 72.779C142.075 73.95 139.373 75.97 137.995 77.267C136.618 78.565 134.661 80.09 133.647 80.658C132.634 81.225 128.136 85.074 123.652 89.21C119.168 93.347 113.177 98.768 110.338 101.258C107.499 103.747 102.999 108.215 100.338 111.185C97.677 114.156 92.35 120.098 88.5 124.391C84.65 128.683 81.103 132.939 80.618 133.848C80.133 134.756 78.506 136.85 77.001 138.5C73.511 142.327 61 159.835 61 160.891C61 161.331 60.213 162.407 59.25 163.282C58.288 164.158 56.6 166.59 55.5 168.687C54.4 170.784 53.125 172.95 52.666 173.5C51.337 175.093 46.398 183.933 42.889 191C41.113 194.575 39.287 197.65 38.83 197.833C38.374 198.017 38 198.562 38 199.045C38 199.528 36.4 203.428 34.444 207.712C32.489 211.995 30.2 217.075 29.358 219C28.515 220.925 27.19 223.774 26.413 225.331C25.636 226.888 24.997 228.688 24.994 229.331C24.99 229.974 24.382 231.661 23.641 233.081C21.901 236.415 14 261.154 14 263.267C14 264.155 13.589 265.136 13.087 265.446C12.585 265.757 11.874 267.921 11.507 270.255C11.14 272.59 10.43 275.85 9.93104 277.5C8.26804 282.991 4.00004 306.959 4.00004 310.808C4.00004 312.894 3.55104 315.049 3.00304 315.597C0.0640366 318.536 0.00603628 398.184 2.93904 405.143C3.48504 406.44 4.39704 411.1 4.96604 415.5C6.44604 426.942 8.55504 438.047 9.86904 441.315C10.491 442.863 11.003 445.563 11.006 447.315C11.01 449.067 11.685 451.789 12.506 453.364C13.328 454.94 14 456.826 14 457.556C14 459.313 20.758 480.671 22.526 484.5C23.287 486.15 25.101 490.65 26.557 494.5C28.013 498.35 29.608 501.928 30.102 502.45C30.596 502.972 31 504.252 31 505.292C31 506.333 31.9 508.329 33 509.727C34.1 511.126 35.006 512.772 35.014 513.385C35.038 515.323 49.02 541.277 54.076 548.767C55.684 551.15 57 553.364 57 553.686C57 554.468 66.485 567.9 71.5 574.221C73.7 576.994 76.574 580.891 77.886 582.881C79.199 584.872 82.686 589.054 85.636 592.176C88.586 595.297 91 598.232 91 598.698C91 599.975 118.897 627.497 123.608 630.868C125.867 632.484 128.821 634.863 130.172 636.153C133.358 639.197 141.587 645.653 151 652.495C155.125 655.492 158.95 658.319 159.5 658.776C160.05 659.233 162.863 660.892 165.75 662.462C168.638 664.033 171 665.696 171 666.159C171 666.622 171.472 667 172.048 667C172.624 667 175.437 668.472 178.298 670.271C181.159 672.071 188.675 676.142 195 679.319C201.325 682.496 207.175 685.474 208 685.938C210.442 687.309 216.094 689.708 222.5 692.093C225.8 693.322 228.95 694.645 229.5 695.033C230.05 695.421 232.171 696.04 234.214 696.408C238.272 697.139 244.213 694.794 247.011 691.356C249.147 688.733 252 683.405 252 682.041C252 681.408 252.82 679.002 253.823 676.695C255.696 672.386 257.638 667.516 260.282 660.5C263.464 652.057 269.262 637.363 270.6 634.349C271.37 632.616 272 630.719 272 630.133C272 629.079 273.497 625.358 277.128 617.39C278.157 615.13 279 612.344 279 611.199C279 610.055 279.417 608.86 279.927 608.545C280.437 608.23 281.368 606.291 281.997 604.236C282.625 602.181 283.519 599.6 283.982 598.5C284.446 597.4 285.854 593.8 287.112 590.5C288.37 587.2 289.76 584.072 290.2 583.55C290.64 583.027 291 581.913 291 581.072C291 580.232 292.538 575.709 294.417 571.022C296.297 566.335 299.445 558.225 301.414 553C303.382 547.775 305.669 542.226 306.496 540.669C307.323 539.112 308 536.839 308 535.619C308 534.399 308.404 532.973 308.898 532.45C309.392 531.928 311.002 528.35 312.476 524.5C313.949 520.65 316.083 515.25 317.216 512.5C318.35 509.75 320.591 503.715 322.196 499.088C323.801 494.461 325.763 489.749 326.557 488.615C327.351 487.482 328.014 485.418 328.032 484.027C328.049 482.637 328.724 480.626 329.532 479.559C331.572 476.862 331.438 468.071 329.311 465.033C326.386 460.858 324.701 459.613 315.989 455.189C300.615 447.383 292.627 441.551 282.329 430.614C277.108 425.07 269 413.873 269 412.208C269 411.712 268.1 410.268 267 409C265.9 407.732 265 405.953 265 405.047C265 404.141 264.615 402.973 264.145 402.45C263.296 401.508 260.729 394.037 257.289 382.5C254.786 374.105 254.82 342.073 257.336 337.5C258.245 335.85 258.99 333.256 258.994 331.736C258.997 330.216 259.414 328.191 259.92 327.236C260.426 326.281 261.856 322.8 263.099 319.5C264.341 316.2 266.177 312.427 267.178 311.115C268.18 309.803 269 308.363 269 307.913C269 307.464 271.118 304.037 273.706 300.298C280.992 289.774 292.623 278.535 303.361 271.645C307.917 268.721 319.179 263.001 320.392 262.994C321.001 262.99 322.647 262.389 324.048 261.658C325.45 260.927 330.601 259.307 335.495 258.058C343.602 255.99 346 255.832 362.447 256.28C380.359 256.768 387.8 257.95 395.651 261.554C397.384 262.349 399.185 263 399.653 263C400.364 263 406.301 266.077 418.341 272.685C424.62 276.131 444.144 295.638 445.431 299.75C445.818 300.987 446.579 302 447.123 302C447.666 302 449.23 304.363 450.599 307.25C451.967 310.137 453.502 313.175 454.009 314C458.928 321.998 463.314 338.584 464.632 354.173C465.704 366.854 461.451 391.518 456.571 400.923C455.836 402.34 453.983 405.975 452.453 409C447.165 419.457 431.787 439 428.846 439C428.475 439 426.55 440.575 424.568 442.5C422.585 444.425 420.672 446 420.316 446C419.959 446 416.355 448.065 412.306 450.588C408.258 453.112 403.404 455.602 401.52 456.122C399.636 456.642 396.191 458.844 393.863 461.014C389.966 464.648 389.596 465.434 389.199 470.93C388.774 476.799 390.364 482.81 394.594 491.331C395.367 492.888 396 494.999 396 496.022C396 497.045 396.385 498.12 396.855 498.41C397.325 498.701 398.933 502.44 400.429 506.719C401.924 510.999 403.789 515.694 404.574 517.154C405.358 518.614 406 520.57 406 521.5C406 522.43 406.63 524.386 407.4 525.846C408.17 527.306 410.465 532.775 412.5 538C414.535 543.225 416.83 548.918 417.6 550.651C418.37 552.384 419 554.422 419 555.179C419 555.936 419.618 557.443 420.372 558.527C421.127 559.612 422.069 561.993 422.466 563.817C422.864 565.642 423.818 568.342 424.588 569.817C425.358 571.293 425.99 573.187 425.994 574.027C425.997 574.868 426.601 576.443 427.337 577.527C428.072 578.612 429.461 581.975 430.424 585C432.204 590.59 433.67 594.243 437.091 601.61C438.141 603.87 439.002 606.345 439.005 607.11C439.01 608.665 443.353 619.687 444.356 620.69C444.71 621.044 445 621.978 445 622.766C445 623.553 445.638 625.616 446.418 627.349C450.044 635.406 451.849 640.037 452.475 642.884C452.848 644.585 453.569 646.234 454.077 646.548C454.585 646.861 455 647.83 455 648.699C455 649.569 455.862 652.13 456.915 654.39C457.968 656.651 460.249 662.325 461.983 667C468.823 685.437 471.617 690.71 476.37 694.153C480.767 697.339 485.24 697.812 489.669 695.561C494.134 693.292 499.262 691.213 502.209 690.479C503.699 690.108 505.442 689.173 506.081 688.402C506.721 687.631 507.784 687 508.444 687C509.467 687 528.782 677.488 533.824 674.5C534.753 673.95 538.596 671.7 542.365 669.5C550.258 664.893 550.426 664.791 558.75 659.608C562.188 657.467 565 655.433 565 655.087C565 654.741 567.025 653.352 569.5 652C571.975 650.648 574 649.256 574 648.907C574 648.558 575.913 646.98 578.25 645.401C585.933 640.21 603.175 624.755 618.214 609.579C626.346 601.373 633 594.275 633 593.807C633 593.339 634.787 591.017 636.971 588.648C639.155 586.278 643.182 581.226 645.922 577.42C648.661 573.614 651.285 570.05 651.753 569.5C654.148 566.688 666.218 548.564 666.952 546.679C667.418 545.481 668.883 542.92 670.207 540.99C672.942 537.002 673.643 535.686 683.12 516.755C686.904 509.196 690 502.388 690 501.628C690 500.867 690.675 499.685 691.5 499C692.325 498.315 693 496.888 693 495.828C693 494.768 693.606 492.686 694.346 491.2C695.087 489.715 696.715 485.35 697.964 481.5C699.214 477.65 700.858 473.306 701.618 471.846C702.378 470.386 703 468.219 703 467.03C703 465.841 703.488 463.957 704.084 462.843C705.409 460.367 709.972 442.289 709.988 439.45C709.995 438.322 710.457 436.943 711.017 436.383C712.102 435.298 712.401 433.444 716.481 402.506C718.89 384.239 719.083 380.265 718.716 356.506C718.346 332.597 716.736 312.402 714.095 298.545C713.566 295.77 712.835 291.25 712.469 288.5C712.104 285.75 711.513 283.05 711.156 282.5C710.532 281.537 710.096 279.818 706.611 264.563C705.739 260.748 704.57 257.17 704.013 256.613C703.456 256.056 702.998 254.678 702.997 253.55C702.995 252.423 701.645 248.191 699.997 244.146C698.348 240.102 697 236.146 697 235.357C697 234.567 696.1 232.156 695 230C693.9 227.844 693 225.31 693 224.369C693 223.427 692.401 221.947 691.668 221.079C690.935 220.21 689.322 217.025 688.083 214C685.989 208.886 683.022 202.535 681.076 199C680.622 198.175 679.199 195.475 677.915 193C676.631 190.525 674.557 186.7 673.307 184.5C672.056 182.3 670.565 179.429 669.992 178.119C669.419 176.81 667.949 174.344 666.725 172.64C665.501 170.936 664.05 168.814 663.5 167.924C653.935 152.454 649.911 147.019 633.5 127.407C624.51 116.663 605.295 96.724 599.378 92C597.656 90.625 592.468 86.35 587.85 82.5C583.231 78.65 578.113 74.493 576.476 73.262C570.59 68.836 545.405 52.25 541.003 49.9C538.529 48.58 536.279 47.222 536.003 46.882C535.726 46.542 533.7 45.373 531.5 44.285C529.3 43.196 524.545 40.738 520.933 38.822C517.321 36.907 510.796 33.865 506.433 32.064C502.07 30.263 497.097 27.937 495.382 26.895C493.667 25.853 491.486 25 490.536 25C489.586 25 487.614 24.379 486.154 23.62C483.865 22.431 479.287 20.846 464.5 16.126C455.982 13.407 453.199 12.6 450 11.919C448.075 11.509 442 10.203 436.5 9.017C426.696 6.903 421.536 5.94899 409.5 4.02499C403.957 3.13799 382.642 1.57799 363.5 0.656994C359.1 0.444994 347.175 0.816995 337 1.48299ZM396 4.10099C400.125 4.67199 407.574 5.47699 412.554 5.88999C417.534 6.30199 422.249 7.03599 423.031 7.51899C423.814 8.00299 427.165 8.96999 430.477 9.66799C433.79 10.367 439.652 11.596 443.505 12.401C447.357 13.205 451.774 14.344 453.32 14.931C454.866 15.519 457.365 16 458.874 16C460.383 16 462.491 16.661 463.559 17.468C464.626 18.276 466.332 18.951 467.349 18.968C468.366 18.986 470.616 19.628 472.349 20.395C474.082 21.161 478.65 22.774 482.5 23.978C488.912 25.982 493.037 27.705 506.11 33.838C508.645 35.027 511.682 36 512.86 36C514.037 36 515 36.391 515 36.87C515 37.348 519.163 39.844 524.25 42.416C529.337 44.988 534.85 47.956 536.5 49.011C538.15 50.066 541.975 52.154 545 53.652C548.025 55.15 551.85 57.639 553.5 59.183C555.15 60.727 556.84 61.993 557.255 61.995C558.314 62.002 570.168 70.322 578.5 76.907C582.35 79.95 586.131 82.903 586.902 83.47C587.673 84.036 590.007 86.177 592.09 88.227C594.172 90.277 597.148 92.752 598.701 93.727C600.255 94.702 603.545 97.636 606.013 100.246C608.481 102.856 611.063 104.994 611.75 104.996C612.438 104.998 613 105.537 613 106.192C613 106.848 615.362 109.699 618.25 112.527C621.138 115.356 626.2 120.893 629.5 124.833C632.8 128.773 636.962 133.629 638.75 135.624C640.538 137.619 642 139.645 642 140.126C642 140.607 642.788 141.804 643.75 142.786C647.877 146.997 659.424 163.436 663.768 171.284C665.015 173.538 666.703 176.119 667.518 177.02C668.333 177.92 669 179.152 669 179.757C669 180.362 669.57 181.452 670.266 182.179C671.573 183.544 682.976 206.171 687.388 216.156C688.762 219.267 690.362 222.106 690.943 222.465C691.525 222.824 692.015 224.329 692.034 225.809C692.053 227.289 692.937 230.3 694 232.5C695.063 234.7 695.947 237.047 695.966 237.716C695.998 238.847 696.744 240.797 700.093 248.5C701.27 251.208 702.343 255.421 704.929 267.5C705.4 269.7 706.262 272.85 706.843 274.5C710.181 283.966 712 291.134 712 294.82C712 297.119 712.667 302.937 713.481 307.75C715.6 320.266 716.05 326.604 716.676 352.777C717.213 375.187 716.026 400.28 713.995 409.5C713.51 411.7 712.66 417.956 712.105 423.401C711.551 428.847 710.625 433.775 710.049 434.351C709.472 434.928 709.002 436.322 709.005 437.45C709.008 438.577 708.372 441.525 707.592 444C704.753 453.008 702 464.014 702 466.356C702 467.676 701.374 469.275 700.609 469.91C699.844 470.545 698.986 472.287 698.704 473.782C698.182 476.543 695.691 483.862 694.036 487.5C693.535 488.6 692.824 490.625 692.456 492C692.087 493.375 689.863 498.55 687.512 503.5C685.162 508.45 682.908 513.581 682.504 514.902C682.099 516.223 680.471 519.506 678.884 522.196C677.298 524.887 676 527.463 676 527.922C676 528.38 675.379 529.27 674.621 529.9C673.862 530.53 672.982 532.34 672.666 533.922C672.349 535.505 671.057 537.923 669.795 539.296C668.533 540.668 666.15 544.404 664.5 547.598C661.431 553.538 660.62 554.825 658 557.909C655.934 560.341 654.167 563.106 653.074 565.614C652.568 566.776 651.444 567.999 650.577 568.332C649.709 568.665 649 569.626 649 570.469C649 571.311 648.622 572 648.161 572C647.699 572 646.846 573.013 646.264 574.25C645.209 576.497 635.894 588.159 627.789 597.379C621.631 604.385 598.79 627 597.873 627C597.447 627 596.74 627.563 596.3 628.25C595.86 628.938 593.25 631.262 590.5 633.415C587.75 635.568 585.05 637.834 584.5 638.45C583.255 639.844 572.778 647.716 567.757 651.03C565.698 652.388 564.011 653.86 564.007 654.301C564.003 654.742 562.538 655.785 560.75 656.62C555.087 659.265 552.432 660.872 549.847 663.218C548.464 664.473 543.826 667.3 539.541 669.5C535.255 671.7 531.532 674.063 531.268 674.75C531.003 675.438 529.956 676 528.941 676C527.925 676 523.775 677.749 519.717 679.886C515.658 682.023 511.475 684.197 510.419 684.717C509.364 685.236 507.001 686.413 505.169 687.331C503.337 688.249 501.176 689 500.367 689C499.558 689 497.232 689.859 495.198 690.909C485.568 695.88 483.94 696.148 478.641 693.634C474.629 691.73 469.052 684.043 469.019 680.372C469.009 679.202 468.325 677.685 467.5 677C466.675 676.315 466 674.866 466 673.779C466 672.692 465.392 670.384 464.649 668.651C463.906 666.918 462.264 662.8 461 659.5C459.736 656.2 458.094 652.79 457.351 651.921C456.608 651.053 456 649.576 456 648.64C456 646.034 452.156 635.203 448.908 628.656C447.309 625.432 446 622.135 446 621.328C446 619.813 441.298 607.544 438.018 600.5C436.993 598.3 435.249 593.54 434.141 589.922C433.033 586.304 431.009 581.242 429.643 578.673C428.277 576.104 426.856 572.621 426.485 570.933C426.115 569.246 425.182 566.658 424.412 565.183C423.642 563.707 423.01 561.543 423.006 560.372C423.003 559.202 422.325 557.685 421.5 557C420.675 556.315 420 554.608 420 553.206C420 551.804 419.41 549.947 418.688 549.079C417.967 548.21 416.094 543.544 414.527 538.709C412.96 533.875 411.3 529.685 410.839 529.4C410.377 529.115 410 528.064 410 527.063C410 526.063 409.325 524.685 408.5 524C407.675 523.315 407 521.56 407 520.1C407 518.64 406.382 516.557 405.628 515.473C404.873 514.388 403.916 511.94 403.501 510.033C403.085 508.126 402.353 505.876 401.873 505.033C401.393 504.19 400.552 502.375 400.003 501C399.454 499.625 398.619 497.825 398.146 497C397.674 496.175 396.28 492.35 395.048 488.5C393.816 484.65 392.176 480.082 391.404 478.349C389.626 474.36 389.595 468.548 391.342 466.801C392.08 466.063 393.219 464.459 393.873 463.238C394.994 461.143 402.053 457 404.502 457C405.121 457 408.524 455.08 412.064 452.733C415.604 450.386 419.706 447.935 421.181 447.286C422.655 446.637 424.878 444.732 426.119 443.053C427.36 441.374 429.027 440 429.823 440C430.619 440 432.222 438.951 433.385 437.668C439.154 431.308 446 423.087 446 422.52C446 422.17 447.292 420.222 448.871 418.191C452.121 414.014 454.412 409.6 460.391 396C461.993 392.355 463.54 386.67 465.015 379C465.491 376.525 465.898 367.975 465.919 360C465.963 343.035 463.841 331.24 458.902 321C457.177 317.425 454.581 312.048 453.133 309.05C451.685 306.053 449.488 302.5 448.25 301.154C447.012 299.809 446 298.203 446 297.585C446 295.275 421.823 272 419.423 272C418.775 272 417.701 271.345 417.037 270.545C415.078 268.185 403.136 262 400.537 262C399.22 262 397.548 261.438 396.821 260.75C394.636 258.683 385.168 256.116 373.344 254.385C362.977 252.867 361.139 252.87 347.344 254.431C339.18 255.354 332.072 256.535 331.55 257.055C331.027 257.575 329.952 258 329.16 258C328.367 258 325.87 258.858 323.61 259.907C321.349 260.956 317.025 262.813 314 264.033C310.975 265.253 308.275 266.598 308 267.023C307.725 267.448 305.475 268.872 303 270.189C297.796 272.957 296.245 274.181 286.767 283C279.456 289.802 268 304.142 268 306.49C268 307.242 267.381 308.476 266.625 309.232C264.224 311.633 259.096 323.33 258.398 328C258.029 330.475 257.25 333.4 256.669 334.5C252.622 342.162 252.6 377.194 256.638 385.2C257.387 386.686 258 388.785 258 389.865C258 392.943 264.077 408.077 266.142 410.142C267.164 411.164 268.014 412.562 268.031 413.25C268.091 415.641 272.912 422.367 280.538 430.7C288.628 439.54 300.82 450 303.032 450C303.753 450 305.053 450.637 305.921 451.416C307.751 453.058 320.87 460 322.142 460C323.577 460 326.727 463.623 328.451 467.255C329.805 470.109 329.889 471.432 328.948 475.094C328.325 477.517 327.584 480.947 327.302 482.715C327.02 484.483 326.162 486.451 325.395 487.087C324.628 487.724 324 488.77 324 489.411C324 490.052 323.1 492.342 322 494.5C320.9 496.658 320 499.201 320 500.152C320 501.104 319.589 502.136 319.087 502.446C318.585 502.757 317.875 504.782 317.509 506.948C317.143 509.113 316.204 511.416 315.422 512.065C314.64 512.714 314 514.225 314 515.422C314 516.62 313.583 518.027 313.073 518.55C311.619 520.039 307 532.978 307 535.56C307 536.837 306.543 538.164 305.985 538.509C304.748 539.274 302.704 544.066 299.376 554C297.995 558.125 296.252 562.85 295.504 564.5C291.595 573.122 290.014 577.144 288.533 582.239C287.636 585.323 285.575 590.588 283.951 593.939C282.328 597.29 281 600.825 281 601.793C281 602.762 280.392 604.443 279.65 605.527C278.907 606.612 278.023 609.264 277.685 611.419C277.347 613.575 276.705 615.6 276.258 615.919C275.811 616.239 274.713 618.3 273.819 620.5C272.925 622.7 271.25 626.833 270.097 629.685C268.944 632.537 268 636.039 268 637.467C268 638.895 267.325 640.322 266.5 640.638C265.675 640.955 265 641.966 265 642.884C265 643.803 264.4 645.443 263.666 646.527C262.932 647.612 261.745 650.649 261.029 653.276C260.312 655.902 259.337 658.291 258.863 658.585C258.388 658.878 258 660.21 258 661.544C258 662.879 256.713 666.565 255.139 669.735C252.017 676.027 248 685.998 248 687.455C248 688.975 243.757 693 242.154 693C241.331 693 239.922 693.665 239.024 694.478C237.578 695.787 236.794 695.73 232.177 693.975C229.31 692.886 226.185 691.606 225.232 691.131C223.403 690.22 218.818 688.559 213 686.701C211.075 686.086 209.14 685.002 208.7 684.291C208.26 683.581 207.05 683 206.009 683C204.969 683 203.824 682.525 203.465 681.943C203.106 681.362 200.267 679.771 197.156 678.407C194.045 677.043 190.825 675.497 190 674.972C189.175 674.447 186.25 672.831 183.5 671.381C180.75 669.931 178.35 668.352 178.167 667.872C177.983 667.393 177.026 667 176.039 667C175.052 667 173.665 666.301 172.956 665.447C172.247 664.593 168.479 662.048 164.583 659.791C156.929 655.358 149.98 650.32 148.7 648.277C148.26 647.575 147.28 647 146.522 647C145.763 647 144.548 646.428 143.821 645.729C141.626 643.618 133.324 637 132.871 637C131.006 637 103.529 610.369 93.663 599C88.652 593.225 83.978 588.14 83.276 587.7C82.574 587.26 81.322 585.589 80.493 583.986C79.664 582.383 77.194 579.143 75.005 576.786C72.816 574.429 71.019 572.128 71.012 571.674C71.006 571.22 68.993 568.24 66.54 565.052C64.086 561.863 60.915 557.065 59.491 554.388C58.068 551.711 55.849 548.337 54.561 546.891C53.272 545.445 51.894 543.243 51.499 541.997C50.891 540.081 48.943 536.626 43.043 527C42.537 526.175 41.143 523.25 39.943 520.5C38.744 517.75 37.383 514.825 36.919 514C34.687 510.032 31.95 503.94 29.955 498.5C28.745 495.2 27.135 491.306 26.378 489.846C25.62 488.386 25 486.528 25 485.718C25 484.908 24.325 483.685 23.5 483C22.675 482.315 22 480.83 22 479.699C22 477.407 18.445 465.227 16.352 460.349C15.608 458.616 15 456.353 15 455.321C15 454.289 14.376 452.554 13.613 451.465C12.85 450.375 11.989 447.238 11.699 444.492C11.41 441.746 10.211 434.55 9.03504 428.5C2.93204 397.094 2.61504 393.976 2.27104 362.006C2.05204 341.684 2.31704 330.009 3.06704 327.006C4.09504 322.889 4.86104 318.082 8.01204 296C8.60104 291.875 9.73904 286.281 10.541 283.568C11.344 280.856 12.002 277.256 12.004 275.568C12.008 272.998 13.34 268.555 17.273 258C19.645 251.634 22 243.168 22 241.006C22 239.573 22.54 237.86 23.199 237.201C23.859 236.541 24.871 234.712 25.449 233.137C28.22 225.583 32.29 215.345 33.057 214C34.792 210.956 41 197.903 41 197.3C41 196.957 43.136 193.036 45.746 188.588C48.356 184.14 51.168 179.264 51.996 177.753C54.559 173.071 62.3 160.527 62.951 160C63.29 159.725 65.785 156.35 68.495 152.5C71.206 148.65 75.368 143.025 77.745 140C80.122 136.975 83.29 132.943 84.784 131.04C92.362 121.385 112.536 100.947 125 90.296C130.225 85.831 136.075 80.675 138 78.839C139.925 77.003 143.226 74.6 145.336 73.5C147.446 72.4 149.599 70.713 150.121 69.75C150.643 68.787 151.73 68 152.535 68C153.341 68 154 67.55 154 67C154 66.45 154.512 66 155.137 66C155.763 66 159.418 63.862 163.26 61.25C169.586 56.949 177.776 51.996 183.75 48.86C184.988 48.211 186 47.301 186 46.839C186 46.378 186.479 46 187.064 46C188.232 46 196.223 42.238 202.5 38.733C207.354 36.023 217.075 32 218.769 32C219.446 32 220 31.55 220 31C220 30.45 220.533 30 221.184 30C221.836 30 224.198 29.133 226.434 28.073C228.67 27.014 234.445 24.933 239.267 23.45C244.089 21.967 248.278 20.359 248.576 19.877C248.874 19.395 250.13 19 251.368 19C252.605 19 254.491 18.339 255.559 17.532C256.626 16.724 258.484 16.049 259.686 16.032C260.889 16.014 266.514 14.83 272.186 13.4C277.859 11.97 285.2 10.381 288.5 9.86899C291.8 9.35599 295.694 8.276 297.154 7.468C298.764 6.578 302.7 5.96999 307.154 5.92499C311.194 5.88299 318.325 5.26699 323 4.55599C333.534 2.95299 385.382 2.62999 396 4.10099ZM323.903 31.515C316.424 32.191 308.774 33.215 306.903 33.791C305.031 34.367 301.25 35.136 298.5 35.5C295.75 35.864 291.475 36.763 289 37.497C286.525 38.231 281.125 39.594 277 40.526C269.866 42.136 249.763 48.215 245.5 50.05C243.559 50.885 233.559 54.933 227.531 57.323C222.829 59.187 202.093 69.66 195.5 73.5C192.2 75.422 188.825 77.298 188 77.668C187.175 78.038 185.54 79.051 184.366 79.92C182.172 81.544 181.425 82.055 174.383 86.753C162.776 94.496 159.201 97.074 156 100.012C154.075 101.778 149.409 105.71 145.632 108.749C129.694 121.57 105.152 148.062 92.209 166.415C84.155 177.838 77 188.72 76.959 189.61C76.937 190.1 75.587 192.058 73.959 193.962C72.332 195.866 71 198.047 71 198.808C71 199.569 70.194 201.386 69.208 202.846C68.223 204.306 66.676 207.075 65.772 209C58.895 223.644 54.995 232.241 54.966 232.819C54.947 233.194 54.063 235.3 53 237.5C51.937 239.7 51.053 242.197 51.034 243.05C51.015 243.903 50.602 245.028 50.115 245.55C48.993 246.753 41.989 268.175 40.975 273.5C40.557 275.7 39.74 278.85 39.161 280.5C36.947 286.806 33.016 310.202 31.936 323.5C31.445 329.55 30.584 338.325 30.024 343C28.225 358.014 29.395 382.694 33.101 407.933C33.701 412.022 34.357 416.67 34.559 418.263C34.76 419.856 35.617 423.86 36.463 427.16C37.308 430.461 38 434.498 38 436.13C38 437.763 38.622 440.314 39.382 441.8C40.142 443.285 41.097 446.508 41.505 448.962C41.913 451.415 42.624 454.115 43.084 454.962C43.544 455.808 45.102 460.435 46.547 465.245C47.992 470.055 49.585 474.244 50.087 474.554C50.589 474.864 51.003 475.879 51.006 476.809C51.01 477.739 51.685 479.789 52.506 481.364C53.328 482.94 54 484.67 54 485.21C54 486.88 70.603 520.266 75.835 529.118C80.818 537.547 86.726 546.619 88.877 549.142C90.608 551.173 95.626 557.973 98.735 562.5C100.245 564.7 101.71 566.725 101.991 567C102.271 567.275 105.875 571.311 110 575.969C126.887 595.037 143.133 610.619 154.345 618.5C156.692 620.15 159.938 622.765 161.556 624.311C164.429 627.055 177.507 636.042 183.5 639.389C185.15 640.311 190.55 643.538 195.5 646.561C200.45 649.584 206.975 653.233 210 654.67C213.025 656.108 218.14 658.624 221.366 660.263C226.118 662.675 227.398 662.981 228.101 661.871C228.579 661.117 228.976 660.028 228.985 659.45C228.993 658.873 229.526 657.874 230.168 657.232C231.386 656.014 231.919 654.671 236.409 641.5C237.909 637.1 239.767 632.15 240.538 630.5C243.107 625.002 247.145 614.541 247.979 611.222C248.432 609.419 249.221 607.394 249.732 606.722C250.244 606.05 251.927 601.9 253.472 597.5C255.018 593.1 256.669 589.072 257.141 588.55C257.613 588.027 258 586.952 258 586.16C258 585.367 258.858 582.87 259.906 580.61C260.955 578.349 263.22 572.45 264.94 567.5C266.66 562.55 268.727 557.226 269.534 555.669C270.34 554.112 271 552.38 271 551.82C271 551.26 271.638 549.384 272.418 547.651C276.208 539.229 278 534.615 278 533.277C278 532.469 278.624 530.614 279.387 529.154C280.15 527.694 282.426 522 284.444 516.5C286.462 511 288.711 505.15 289.443 503.5C290.843 500.342 296.796 484.675 297.672 481.842C298.303 479.802 296.725 478.375 286.255 471.52C274.303 463.695 263.298 454.043 257.125 445.975C256.231 444.806 253.813 441.755 251.75 439.193C249.687 436.632 248 434.036 248 433.423C248 432.811 247.1 431.495 246 430.5C244.9 429.505 244 428.148 244 427.485C244 426.822 242.986 424.754 241.747 422.89C236.621 415.176 229.734 394.722 227.536 380.685C224.85 363.526 226.159 337.876 230.346 325.607C231.116 323.348 232.284 319.7 232.94 317.5C234.442 312.461 234.939 311.285 239.7 301.5C245.842 288.879 254.529 276.534 263.878 267.142C273.071 257.907 279.497 252 280.351 252C280.638 252 283.725 250.087 287.211 247.75C293.649 243.433 295.088 242.667 307.5 236.949C316.683 232.718 321.772 231.279 338 228.32C349.266 226.266 353.486 225.946 363.5 226.387C375.936 226.934 393.876 229.791 397.684 231.83C398.886 232.474 400.796 233 401.929 233C405.381 233 423.959 242.053 433.5 248.385C451.394 260.26 464.106 273.742 475.345 292.762C479.005 298.957 482 304.487 482 305.052C482 305.617 482.9 307.844 484 310C485.1 312.156 486 314.838 486 315.96C486 317.082 486.392 318 486.872 318C487.352 318 488.021 319.73 488.359 321.845C488.697 323.96 489.621 327.897 490.413 330.595C492.893 339.055 494.212 360.698 492.984 372.784C491.703 385.379 486.601 406.155 483.206 412.596C482.654 413.643 480.742 417.425 478.958 421C468.683 441.583 451.09 460.78 430.665 473.698L421.831 479.285L422.507 482.893C422.879 484.877 423.773 487.625 424.493 489C425.213 490.375 427.484 496 429.538 501.5C431.593 507 433.887 512.807 434.637 514.404C435.387 516.001 436.014 518.026 436.032 518.904C436.049 519.782 436.724 521.374 437.532 522.441C438.339 523.509 439 525.139 439 526.064C439 527.821 442.062 535.592 444.552 540.154C445.348 541.614 446 543.428 446 544.185C446 544.941 447.575 549.295 449.5 553.86C451.425 558.424 453 563.023 453 564.079C453 565.136 453.39 566 453.868 566C454.345 566 455.951 569.679 457.437 574.175C458.923 578.671 461.457 585.258 463.069 588.813C464.681 592.368 466 596.024 466 596.938C466 597.852 466.421 599.027 466.936 599.55C467.451 600.072 469.013 604.006 470.408 608.29C471.802 612.575 473.631 617.062 474.471 618.263C475.312 619.463 476 621.251 476 622.236C476 623.221 476.414 624.809 476.92 625.764C477.426 626.719 478.808 630.2 479.99 633.5C481.173 636.8 482.791 640.85 483.586 642.5C484.381 644.15 486.087 648.528 487.376 652.23C489.764 659.08 491.499 662 493.184 662C494.225 662 503.816 657.818 508.5 655.322C515.944 651.355 520.726 648.679 523.5 646.926C525.15 645.883 527.558 644.567 528.851 644.001C531.978 642.633 542.411 635.745 542.833 634.77C543.017 634.346 543.692 633.995 544.333 633.989C544.975 633.984 547.75 632.154 550.5 629.924C553.25 627.694 557.075 624.761 559 623.406C566.74 617.957 569.355 615.899 576.243 609.83C593.766 594.394 609.451 577.636 623.208 559.654C625.798 556.269 628.385 552.956 628.958 552.292C629.531 551.628 630 550.822 630 550.502C630 549.955 633.907 544.093 635 543C636.035 541.965 640 536.059 640 535.553C640 535.263 642.852 530.182 646.337 524.262C649.823 518.343 655.036 508.55 657.922 502.5C665.013 487.636 664.992 487.688 670.194 472.5C671.324 469.2 673.063 464.475 674.058 462C675.053 459.525 677.501 450.975 679.497 443C684.735 422.076 685.802 417.162 686.446 411C686.762 407.975 687.475 403.25 688.03 400.5C689.366 393.883 690.108 339.689 689.003 329.5C687.666 317.175 686.022 305.958 684.827 301C684.23 298.525 683.15 293.575 682.426 290C679.824 277.143 678.972 273.415 677.398 268C676.519 264.975 675.405 261.6 674.922 260.5C674.439 259.4 672.961 255.125 671.636 251C669.235 243.524 666.978 237.881 664.373 232.846C663.618 231.386 663 229.65 663 228.989C663 228.327 660.362 222.547 657.138 216.143C646.357 194.728 641.451 186.282 632.139 173.107C628.487 167.94 624.15 161.804 622.5 159.471C610.576 142.607 568.143 100.848 557 95.01C555.625 94.29 554.255 93.329 553.956 92.875C553.359 91.968 530.251 76.646 524.867 73.587C520.501 71.107 500.079 60.93 493 57.708C481.217 52.344 464.981 46.588 444.5 40.515C441.75 39.699 434.55 38.119 428.5 37.002C422.45 35.886 414.35 34.32 410.5 33.522C393.499 29.998 351.47 29.024 323.903 31.515Z"/>
</mask>
<path fill-rule="evenodd" clip-rule="evenodd" d="M337 1.48299C318.332 2.70499 303.852 4.37399 296.5 6.15099C294.3 6.68299 289.125 7.76499 285 8.55599C280.875 9.34699 274.125 10.914 270 12.038C265.875 13.163 260.925 14.483 259 14.972C255.823 15.78 242.506 20.312 231 24.502C228.525 25.403 226.072 26.559 225.55 27.07C225.027 27.582 223.767 28 222.748 28C221.73 28 219.232 28.884 217.198 29.964C215.164 31.043 208.325 34.425 202 37.479C195.675 40.532 187.8 44.581 184.5 46.476C181.2 48.372 176.714 50.899 174.531 52.093C172.348 53.287 169.423 55.049 168.031 56.008C166.639 56.967 162.199 59.893 158.164 62.51C154.13 65.126 150.08 68.029 149.164 68.959C148.249 69.889 145.925 71.608 144 72.779C142.075 73.95 139.373 75.97 137.995 77.267C136.618 78.565 134.661 80.09 133.647 80.658C132.634 81.225 128.136 85.074 123.652 89.21C119.168 93.347 113.177 98.768 110.338 101.258C107.499 103.747 102.999 108.215 100.338 111.185C97.677 114.156 92.35 120.098 88.5 124.391C84.65 128.683 81.103 132.939 80.618 133.848C80.133 134.756 78.506 136.85 77.001 138.5C73.511 142.327 61 159.835 61 160.891C61 161.331 60.213 162.407 59.25 163.282C58.288 164.158 56.6 166.59 55.5 168.687C54.4 170.784 53.125 172.95 52.666 173.5C51.337 175.093 46.398 183.933 42.889 191C41.113 194.575 39.287 197.65 38.83 197.833C38.374 198.017 38 198.562 38 199.045C38 199.528 36.4 203.428 34.444 207.712C32.489 211.995 30.2 217.075 29.358 219C28.515 220.925 27.19 223.774 26.413 225.331C25.636 226.888 24.997 228.688 24.994 229.331C24.99 229.974 24.382 231.661 23.641 233.081C21.901 236.415 14 261.154 14 263.267C14 264.155 13.589 265.136 13.087 265.446C12.585 265.757 11.874 267.921 11.507 270.255C11.14 272.59 10.43 275.85 9.93104 277.5C8.26804 282.991 4.00004 306.959 4.00004 310.808C4.00004 312.894 3.55104 315.049 3.00304 315.597C0.0640366 318.536 0.00603628 398.184 2.93904 405.143C3.48504 406.44 4.39704 411.1 4.96604 415.5C6.44604 426.942 8.55504 438.047 9.86904 441.315C10.491 442.863 11.003 445.563 11.006 447.315C11.01 449.067 11.685 451.789 12.506 453.364C13.328 454.94 14 456.826 14 457.556C14 459.313 20.758 480.671 22.526 484.5C23.287 486.15 25.101 490.65 26.557 494.5C28.013 498.35 29.608 501.928 30.102 502.45C30.596 502.972 31 504.252 31 505.292C31 506.333 31.9 508.329 33 509.727C34.1 511.126 35.006 512.772 35.014 513.385C35.038 515.323 49.02 541.277 54.076 548.767C55.684 551.15 57 553.364 57 553.686C57 554.468 66.485 567.9 71.5 574.221C73.7 576.994 76.574 580.891 77.886 582.881C79.199 584.872 82.686 589.054 85.636 592.176C88.586 595.297 91 598.232 91 598.698C91 599.975 118.897 627.497 123.608 630.868C125.867 632.484 128.821 634.863 130.172 636.153C133.358 639.197 141.587 645.653 151 652.495C155.125 655.492 158.95 658.319 159.5 658.776C160.05 659.233 162.863 660.892 165.75 662.462C168.638 664.033 171 665.696 171 666.159C171 666.622 171.472 667 172.048 667C172.624 667 175.437 668.472 178.298 670.271C181.159 672.071 188.675 676.142 195 679.319C201.325 682.496 207.175 685.474 208 685.938C210.442 687.309 216.094 689.708 222.5 692.093C225.8 693.322 228.95 694.645 229.5 695.033C230.05 695.421 232.171 696.04 234.214 696.408C238.272 697.139 244.213 694.794 247.011 691.356C249.147 688.733 252 683.405 252 682.041C252 681.408 252.82 679.002 253.823 676.695C255.696 672.386 257.638 667.516 260.282 660.5C263.464 652.057 269.262 637.363 270.6 634.349C271.37 632.616 272 630.719 272 630.133C272 629.079 273.497 625.358 277.128 617.39C278.157 615.13 279 612.344 279 611.199C279 610.055 279.417 608.86 279.927 608.545C280.437 608.23 281.368 606.291 281.997 604.236C282.625 602.181 283.519 599.6 283.982 598.5C284.446 597.4 285.854 593.8 287.112 590.5C288.37 587.2 289.76 584.072 290.2 583.55C290.64 583.027 291 581.913 291 581.072C291 580.232 292.538 575.709 294.417 571.022C296.297 566.335 299.445 558.225 301.414 553C303.382 547.775 305.669 542.226 306.496 540.669C307.323 539.112 308 536.839 308 535.619C308 534.399 308.404 532.973 308.898 532.45C309.392 531.928 311.002 528.35 312.476 524.5C313.949 520.65 316.083 515.25 317.216 512.5C318.35 509.75 320.591 503.715 322.196 499.088C323.801 494.461 325.763 489.749 326.557 488.615C327.351 487.482 328.014 485.418 328.032 484.027C328.049 482.637 328.724 480.626 329.532 479.559C331.572 476.862 331.438 468.071 329.311 465.033C326.386 460.858 324.701 459.613 315.989 455.189C300.615 447.383 292.627 441.551 282.329 430.614C277.108 425.07 269 413.873 269 412.208C269 411.712 268.1 410.268 267 409C265.9 407.732 265 405.953 265 405.047C265 404.141 264.615 402.973 264.145 402.45C263.296 401.508 260.729 394.037 257.289 382.5C254.786 374.105 254.82 342.073 257.336 337.5C258.245 335.85 258.99 333.256 258.994 331.736C258.997 330.216 259.414 328.191 259.92 327.236C260.426 326.281 261.856 322.8 263.099 319.5C264.341 316.2 266.177 312.427 267.178 311.115C268.18 309.803 269 308.363 269 307.913C269 307.464 271.118 304.037 273.706 300.298C280.992 289.774 292.623 278.535 303.361 271.645C307.917 268.721 319.179 263.001 320.392 262.994C321.001 262.99 322.647 262.389 324.048 261.658C325.45 260.927 330.601 259.307 335.495 258.058C343.602 255.99 346 255.832 362.447 256.28C380.359 256.768 387.8 257.95 395.651 261.554C397.384 262.349 399.185 263 399.653 263C400.364 263 406.301 266.077 418.341 272.685C424.62 276.131 444.144 295.638 445.431 299.75C445.818 300.987 446.579 302 447.123 302C447.666 302 449.23 304.363 450.599 307.25C451.967 310.137 453.502 313.175 454.009 314C458.928 321.998 463.314 338.584 464.632 354.173C465.704 366.854 461.451 391.518 456.571 400.923C455.836 402.34 453.983 405.975 452.453 409C447.165 419.457 431.787 439 428.846 439C428.475 439 426.55 440.575 424.568 442.5C422.585 444.425 420.672 446 420.316 446C419.959 446 416.355 448.065 412.306 450.588C408.258 453.112 403.404 455.602 401.52 456.122C399.636 456.642 396.191 458.844 393.863 461.014C389.966 464.648 389.596 465.434 389.199 470.93C388.774 476.799 390.364 482.81 394.594 491.331C395.367 492.888 396 494.999 396 496.022C396 497.045 396.385 498.12 396.855 498.41C397.325 498.701 398.933 502.44 400.429 506.719C401.924 510.999 403.789 515.694 404.574 517.154C405.358 518.614 406 520.57 406 521.5C406 522.43 406.63 524.386 407.4 525.846C408.17 527.306 410.465 532.775 412.5 538C414.535 543.225 416.83 548.918 417.6 550.651C418.37 552.384 419 554.422 419 555.179C419 555.936 419.618 557.443 420.372 558.527C421.127 559.612 422.069 561.993 422.466 563.817C422.864 565.642 423.818 568.342 424.588 569.817C425.358 571.293 425.99 573.187 425.994 574.027C425.997 574.868 426.601 576.443 427.337 577.527C428.072 578.612 429.461 581.975 430.424 585C432.204 590.59 433.67 594.243 437.091 601.61C438.141 603.87 439.002 606.345 439.005 607.11C439.01 608.665 443.353 619.687 444.356 620.69C444.71 621.044 445 621.978 445 622.766C445 623.553 445.638 625.616 446.418 627.349C450.044 635.406 451.849 640.037 452.475 642.884C452.848 644.585 453.569 646.234 454.077 646.548C454.585 646.861 455 647.83 455 648.699C455 649.569 455.862 652.13 456.915 654.39C457.968 656.651 460.249 662.325 461.983 667C468.823 685.437 471.617 690.71 476.37 694.153C480.767 697.339 485.24 697.812 489.669 695.561C494.134 693.292 499.262 691.213 502.209 690.479C503.699 690.108 505.442 689.173 506.081 688.402C506.721 687.631 507.784 687 508.444 687C509.467 687 528.782 677.488 533.824 674.5C534.753 673.95 538.596 671.7 542.365 669.5C550.258 664.893 550.426 664.791 558.75 659.608C562.188 657.467 565 655.433 565 655.087C565 654.741 567.025 653.352 569.5 652C571.975 650.648 574 649.256 574 648.907C574 648.558 575.913 646.98 578.25 645.401C585.933 640.21 603.175 624.755 618.214 609.579C626.346 601.373 633 594.275 633 593.807C633 593.339 634.787 591.017 636.971 588.648C639.155 586.278 643.182 581.226 645.922 577.42C648.661 573.614 651.285 570.05 651.753 569.5C654.148 566.688 666.218 548.564 666.952 546.679C667.418 545.481 668.883 542.92 670.207 540.99C672.942 537.002 673.643 535.686 683.12 516.755C686.904 509.196 690 502.388 690 501.628C690 500.867 690.675 499.685 691.5 499C692.325 498.315 693 496.888 693 495.828C693 494.768 693.606 492.686 694.346 491.2C695.087 489.715 696.715 485.35 697.964 481.5C699.214 477.65 700.858 473.306 701.618 471.846C702.378 470.386 703 468.219 703 467.03C703 465.841 703.488 463.957 704.084 462.843C705.409 460.367 709.972 442.289 709.988 439.45C709.995 438.322 710.457 436.943 711.017 436.383C712.102 435.298 712.401 433.444 716.481 402.506C718.89 384.239 719.083 380.265 718.716 356.506C718.346 332.597 716.736 312.402 714.095 298.545C713.566 295.77 712.835 291.25 712.469 288.5C712.104 285.75 711.513 283.05 711.156 282.5C710.532 281.537 710.096 279.818 706.611 264.563C705.739 260.748 704.57 257.17 704.013 256.613C703.456 256.056 702.998 254.678 702.997 253.55C702.995 252.423 701.645 248.191 699.997 244.146C698.348 240.102 697 236.146 697 235.357C697 234.567 696.1 232.156 695 230C693.9 227.844 693 225.31 693 224.369C693 223.427 692.401 221.947 691.668 221.079C690.935 220.21 689.322 217.025 688.083 214C685.989 208.886 683.022 202.535 681.076 199C680.622 198.175 679.199 195.475 677.915 193C676.631 190.525 674.557 186.7 673.307 184.5C672.056 182.3 670.565 179.429 669.992 178.119C669.419 176.81 667.949 174.344 666.725 172.64C665.501 170.936 664.05 168.814 663.5 167.924C653.935 152.454 649.911 147.019 633.5 127.407C624.51 116.663 605.295 96.724 599.378 92C597.656 90.625 592.468 86.35 587.85 82.5C583.231 78.65 578.113 74.493 576.476 73.262C570.59 68.836 545.405 52.25 541.003 49.9C538.529 48.58 536.279 47.222 536.003 46.882C535.726 46.542 533.7 45.373 531.5 44.285C529.3 43.196 524.545 40.738 520.933 38.822C517.321 36.907 510.796 33.865 506.433 32.064C502.07 30.263 497.097 27.937 495.382 26.895C493.667 25.853 491.486 25 490.536 25C489.586 25 487.614 24.379 486.154 23.62C483.865 22.431 479.287 20.846 464.5 16.126C455.982 13.407 453.199 12.6 450 11.919C448.075 11.509 442 10.203 436.5 9.017C426.696 6.903 421.536 5.94899 409.5 4.02499C403.957 3.13799 382.642 1.57799 363.5 0.656994C359.1 0.444994 347.175 0.816995 337 1.48299ZM396 4.10099C400.125 4.67199 407.574 5.47699 412.554 5.88999C417.534 6.30199 422.249 7.03599 423.031 7.51899C423.814 8.00299 427.165 8.96999 430.477 9.66799C433.79 10.367 439.652 11.596 443.505 12.401C447.357 13.205 451.774 14.344 453.32 14.931C454.866 15.519 457.365 16 458.874 16C460.383 16 462.491 16.661 463.559 17.468C464.626 18.276 466.332 18.951 467.349 18.968C468.366 18.986 470.616 19.628 472.349 20.395C474.082 21.161 478.65 22.774 482.5 23.978C488.912 25.982 493.037 27.705 506.11 33.838C508.645 35.027 511.682 36 512.86 36C514.037 36 515 36.391 515 36.87C515 37.348 519.163 39.844 524.25 42.416C529.337 44.988 534.85 47.956 536.5 49.011C538.15 50.066 541.975 52.154 545 53.652C548.025 55.15 551.85 57.639 553.5 59.183C555.15 60.727 556.84 61.993 557.255 61.995C558.314 62.002 570.168 70.322 578.5 76.907C582.35 79.95 586.131 82.903 586.902 83.47C587.673 84.036 590.007 86.177 592.09 88.227C594.172 90.277 597.148 92.752 598.701 93.727C600.255 94.702 603.545 97.636 606.013 100.246C608.481 102.856 611.063 104.994 611.75 104.996C612.438 104.998 613 105.537 613 106.192C613 106.848 615.362 109.699 618.25 112.527C621.138 115.356 626.2 120.893 629.5 124.833C632.8 128.773 636.962 133.629 638.75 135.624C640.538 137.619 642 139.645 642 140.126C642 140.607 642.788 141.804 643.75 142.786C647.877 146.997 659.424 163.436 663.768 171.284C665.015 173.538 666.703 176.119 667.518 177.02C668.333 177.92 669 179.152 669 179.757C669 180.362 669.57 181.452 670.266 182.179C671.573 183.544 682.976 206.171 687.388 216.156C688.762 219.267 690.362 222.106 690.943 222.465C691.525 222.824 692.015 224.329 692.034 225.809C692.053 227.289 692.937 230.3 694 232.5C695.063 234.7 695.947 237.047 695.966 237.716C695.998 238.847 696.744 240.797 700.093 248.5C701.27 251.208 702.343 255.421 704.929 267.5C705.4 269.7 706.262 272.85 706.843 274.5C710.181 283.966 712 291.134 712 294.82C712 297.119 712.667 302.937 713.481 307.75C715.6 320.266 716.05 326.604 716.676 352.777C717.213 375.187 716.026 400.28 713.995 409.5C713.51 411.7 712.66 417.956 712.105 423.401C711.551 428.847 710.625 433.775 710.049 434.351C709.472 434.928 709.002 436.322 709.005 437.45C709.008 438.577 708.372 441.525 707.592 444C704.753 453.008 702 464.014 702 466.356C702 467.676 701.374 469.275 700.609 469.91C699.844 470.545 698.986 472.287 698.704 473.782C698.182 476.543 695.691 483.862 694.036 487.5C693.535 488.6 692.824 490.625 692.456 492C692.087 493.375 689.863 498.55 687.512 503.5C685.162 508.45 682.908 513.581 682.504 514.902C682.099 516.223 680.471 519.506 678.884 522.196C677.298 524.887 676 527.463 676 527.922C676 528.38 675.379 529.27 674.621 529.9C673.862 530.53 672.982 532.34 672.666 533.922C672.349 535.505 671.057 537.923 669.795 539.296C668.533 540.668 666.15 544.404 664.5 547.598C661.431 553.538 660.62 554.825 658 557.909C655.934 560.341 654.167 563.106 653.074 565.614C652.568 566.776 651.444 567.999 650.577 568.332C649.709 568.665 649 569.626 649 570.469C649 571.311 648.622 572 648.161 572C647.699 572 646.846 573.013 646.264 574.25C645.209 576.497 635.894 588.159 627.789 597.379C621.631 604.385 598.79 627 597.873 627C597.447 627 596.74 627.563 596.3 628.25C595.86 628.938 593.25 631.262 590.5 633.415C587.75 635.568 585.05 637.834 584.5 638.45C583.255 639.844 572.778 647.716 567.757 651.03C565.698 652.388 564.011 653.86 564.007 654.301C564.003 654.742 562.538 655.785 560.75 656.62C555.087 659.265 552.432 660.872 549.847 663.218C548.464 664.473 543.826 667.3 539.541 669.5C535.255 671.7 531.532 674.063 531.268 674.75C531.003 675.438 529.956 676 528.941 676C527.925 676 523.775 677.749 519.717 679.886C515.658 682.023 511.475 684.197 510.419 684.717C509.364 685.236 507.001 686.413 505.169 687.331C503.337 688.249 501.176 689 500.367 689C499.558 689 497.232 689.859 495.198 690.909C485.568 695.88 483.94 696.148 478.641 693.634C474.629 691.73 469.052 684.043 469.019 680.372C469.009 679.202 468.325 677.685 467.5 677C466.675 676.315 466 674.866 466 673.779C466 672.692 465.392 670.384 464.649 668.651C463.906 666.918 462.264 662.8 461 659.5C459.736 656.2 458.094 652.79 457.351 651.921C456.608 651.053 456 649.576 456 648.64C456 646.034 452.156 635.203 448.908 628.656C447.309 625.432 446 622.135 446 621.328C446 619.813 441.298 607.544 438.018 600.5C436.993 598.3 435.249 593.54 434.141 589.922C433.033 586.304 431.009 581.242 429.643 578.673C428.277 576.104 426.856 572.621 426.485 570.933C426.115 569.246 425.182 566.658 424.412 565.183C423.642 563.707 423.01 561.543 423.006 560.372C423.003 559.202 422.325 557.685 421.5 557C420.675 556.315 420 554.608 420 553.206C420 551.804 419.41 549.947 418.688 549.079C417.967 548.21 416.094 543.544 414.527 538.709C412.96 533.875 411.3 529.685 410.839 529.4C410.377 529.115 410 528.064 410 527.063C410 526.063 409.325 524.685 408.5 524C407.675 523.315 407 521.56 407 520.1C407 518.64 406.382 516.557 405.628 515.473C404.873 514.388 403.916 511.94 403.501 510.033C403.085 508.126 402.353 505.876 401.873 505.033C401.393 504.19 400.552 502.375 400.003 501C399.454 499.625 398.619 497.825 398.146 497C397.674 496.175 396.28 492.35 395.048 488.5C393.816 484.65 392.176 480.082 391.404 478.349C389.626 474.36 389.595 468.548 391.342 466.801C392.08 466.063 393.219 464.459 393.873 463.238C394.994 461.143 402.053 457 404.502 457C405.121 457 408.524 455.08 412.064 452.733C415.604 450.386 419.706 447.935 421.181 447.286C422.655 446.637 424.878 444.732 426.119 443.053C427.36 441.374 429.027 440 429.823 440C430.619 440 432.222 438.951 433.385 437.668C439.154 431.308 446 423.087 446 422.52C446 422.17 447.292 420.222 448.871 418.191C452.121 414.014 454.412 409.6 460.391 396C461.993 392.355 463.54 386.67 465.015 379C465.491 376.525 465.898 367.975 465.919 360C465.963 343.035 463.841 331.24 458.902 321C457.177 317.425 454.581 312.048 453.133 309.05C451.685 306.053 449.488 302.5 448.25 301.154C447.012 299.809 446 298.203 446 297.585C446 295.275 421.823 272 419.423 272C418.775 272 417.701 271.345 417.037 270.545C415.078 268.185 403.136 262 400.537 262C399.22 262 397.548 261.438 396.821 260.75C394.636 258.683 385.168 256.116 373.344 254.385C362.977 252.867 361.139 252.87 347.344 254.431C339.18 255.354 332.072 256.535 331.55 257.055C331.027 257.575 329.952 258 329.16 258C328.367 258 325.87 258.858 323.61 259.907C321.349 260.956 317.025 262.813 314 264.033C310.975 265.253 308.275 266.598 308 267.023C307.725 267.448 305.475 268.872 303 270.189C297.796 272.957 296.245 274.181 286.767 283C279.456 289.802 268 304.142 268 306.49C268 307.242 267.381 308.476 266.625 309.232C264.224 311.633 259.096 323.33 258.398 328C258.029 330.475 257.25 333.4 256.669 334.5C252.622 342.162 252.6 377.194 256.638 385.2C257.387 386.686 258 388.785 258 389.865C258 392.943 264.077 408.077 266.142 410.142C267.164 411.164 268.014 412.562 268.031 413.25C268.091 415.641 272.912 422.367 280.538 430.7C288.628 439.54 300.82 450 303.032 450C303.753 450 305.053 450.637 305.921 451.416C307.751 453.058 320.87 460 322.142 460C323.577 460 326.727 463.623 328.451 467.255C329.805 470.109 329.889 471.432 328.948 475.094C328.325 477.517 327.584 480.947 327.302 482.715C327.02 484.483 326.162 486.451 325.395 487.087C324.628 487.724 324 488.77 324 489.411C324 490.052 323.1 492.342 322 494.5C320.9 496.658 320 499.201 320 500.152C320 501.104 319.589 502.136 319.087 502.446C318.585 502.757 317.875 504.782 317.509 506.948C317.143 509.113 316.204 511.416 315.422 512.065C314.64 512.714 314 514.225 314 515.422C314 516.62 313.583 518.027 313.073 518.55C311.619 520.039 307 532.978 307 535.56C307 536.837 306.543 538.164 305.985 538.509C304.748 539.274 302.704 544.066 299.376 554C297.995 558.125 296.252 562.85 295.504 564.5C291.595 573.122 290.014 577.144 288.533 582.239C287.636 585.323 285.575 590.588 283.951 593.939C282.328 597.29 281 600.825 281 601.793C281 602.762 280.392 604.443 279.65 605.527C278.907 606.612 278.023 609.264 277.685 611.419C277.347 613.575 276.705 615.6 276.258 615.919C275.811 616.239 274.713 618.3 273.819 620.5C272.925 622.7 271.25 626.833 270.097 629.685C268.944 632.537 268 636.039 268 637.467C268 638.895 267.325 640.322 266.5 640.638C265.675 640.955 265 641.966 265 642.884C265 643.803 264.4 645.443 263.666 646.527C262.932 647.612 261.745 650.649 261.029 653.276C260.312 655.902 259.337 658.291 258.863 658.585C258.388 658.878 258 660.21 258 661.544C258 662.879 256.713 666.565 255.139 669.735C252.017 676.027 248 685.998 248 687.455C248 688.975 243.757 693 242.154 693C241.331 693 239.922 693.665 239.024 694.478C237.578 695.787 236.794 695.73 232.177 693.975C229.31 692.886 226.185 691.606 225.232 691.131C223.403 690.22 218.818 688.559 213 686.701C211.075 686.086 209.14 685.002 208.7 684.291C208.26 683.581 207.05 683 206.009 683C204.969 683 203.824 682.525 203.465 681.943C203.106 681.362 200.267 679.771 197.156 678.407C194.045 677.043 190.825 675.497 190 674.972C189.175 674.447 186.25 672.831 183.5 671.381C180.75 669.931 178.35 668.352 178.167 667.872C177.983 667.393 177.026 667 176.039 667C175.052 667 173.665 666.301 172.956 665.447C172.247 664.593 168.479 662.048 164.583 659.791C156.929 655.358 149.98 650.32 148.7 648.277C148.26 647.575 147.28 647 146.522 647C145.763 647 144.548 646.428 143.821 645.729C141.626 643.618 133.324 637 132.871 637C131.006 637 103.529 610.369 93.663 599C88.652 593.225 83.978 588.14 83.276 587.7C82.574 587.26 81.322 585.589 80.493 583.986C79.664 582.383 77.194 579.143 75.005 576.786C72.816 574.429 71.019 572.128 71.012 571.674C71.006 571.22 68.993 568.24 66.54 565.052C64.086 561.863 60.915 557.065 59.491 554.388C58.068 551.711 55.849 548.337 54.561 546.891C53.272 545.445 51.894 543.243 51.499 541.997C50.891 540.081 48.943 536.626 43.043 527C42.537 526.175 41.143 523.25 39.943 520.5C38.744 517.75 37.383 514.825 36.919 514C34.687 510.032 31.95 503.94 29.955 498.5C28.745 495.2 27.135 491.306 26.378 489.846C25.62 488.386 25 486.528 25 485.718C25 484.908 24.325 483.685 23.5 483C22.675 482.315 22 480.83 22 479.699C22 477.407 18.445 465.227 16.352 460.349C15.608 458.616 15 456.353 15 455.321C15 454.289 14.376 452.554 13.613 451.465C12.85 450.375 11.989 447.238 11.699 444.492C11.41 441.746 10.211 434.55 9.03504 428.5C2.93204 397.094 2.61504 393.976 2.27104 362.006C2.05204 341.684 2.31704 330.009 3.06704 327.006C4.09504 322.889 4.86104 318.082 8.01204 296C8.60104 291.875 9.73904 286.281 10.541 283.568C11.344 280.856 12.002 277.256 12.004 275.568C12.008 272.998 13.34 268.555 17.273 258C19.645 251.634 22 243.168 22 241.006C22 239.573 22.54 237.86 23.199 237.201C23.859 236.541 24.871 234.712 25.449 233.137C28.22 225.583 32.29 215.345 33.057 214C34.792 210.956 41 197.903 41 197.3C41 196.957 43.136 193.036 45.746 188.588C48.356 184.14 51.168 179.264 51.996 177.753C54.559 173.071 62.3 160.527 62.951 160C63.29 159.725 65.785 156.35 68.495 152.5C71.206 148.65 75.368 143.025 77.745 140C80.122 136.975 83.29 132.943 84.784 131.04C92.362 121.385 112.536 100.947 125 90.296C130.225 85.831 136.075 80.675 138 78.839C139.925 77.003 143.226 74.6 145.336 73.5C147.446 72.4 149.599 70.713 150.121 69.75C150.643 68.787 151.73 68 152.535 68C153.341 68 154 67.55 154 67C154 66.45 154.512 66 155.137 66C155.763 66 159.418 63.862 163.26 61.25C169.586 56.949 177.776 51.996 183.75 48.86C184.988 48.211 186 47.301 186 46.839C186 46.378 186.479 46 187.064 46C188.232 46 196.223 42.238 202.5 38.733C207.354 36.023 217.075 32 218.769 32C219.446 32 220 31.55 220 31C220 30.45 220.533 30 221.184 30C221.836 30 224.198 29.133 226.434 28.073C228.67 27.014 234.445 24.933 239.267 23.45C244.089 21.967 248.278 20.359 248.576 19.877C248.874 19.395 250.13 19 251.368 19C252.605 19 254.491 18.339 255.559 17.532C256.626 16.724 258.484 16.049 259.686 16.032C260.889 16.014 266.514 14.83 272.186 13.4C277.859 11.97 285.2 10.381 288.5 9.86899C291.8 9.35599 295.694 8.276 297.154 7.468C298.764 6.578 302.7 5.96999 307.154 5.92499C311.194 5.88299 318.325 5.26699 323 4.55599C333.534 2.95299 385.382 2.62999 396 4.10099ZM323.903 31.515C316.424 32.191 308.774 33.215 306.903 33.791C305.031 34.367 301.25 35.136 298.5 35.5C295.75 35.864 291.475 36.763 289 37.497C286.525 38.231 281.125 39.594 277 40.526C269.866 42.136 249.763 48.215 245.5 50.05C243.559 50.885 233.559 54.933 227.531 57.323C222.829 59.187 202.093 69.66 195.5 73.5C192.2 75.422 188.825 77.298 188 77.668C187.175 78.038 185.54 79.051 184.366 79.92C182.172 81.544 181.425 82.055 174.383 86.753C162.776 94.496 159.201 97.074 156 100.012C154.075 101.778 149.409 105.71 145.632 108.749C129.694 121.57 105.152 148.062 92.209 166.415C84.155 177.838 77 188.72 76.959 189.61C76.937 190.1 75.587 192.058 73.959 193.962C72.332 195.866 71 198.047 71 198.808C71 199.569 70.194 201.386 69.208 202.846C68.223 204.306 66.676 207.075 65.772 209C58.895 223.644 54.995 232.241 54.966 232.819C54.947 233.194 54.063 235.3 53 237.5C51.937 239.7 51.053 242.197 51.034 243.05C51.015 243.903 50.602 245.028 50.115 245.55C48.993 246.753 41.989 268.175 40.975 273.5C40.557 275.7 39.74 278.85 39.161 280.5C36.947 286.806 33.016 310.202 31.936 323.5C31.445 329.55 30.584 338.325 30.024 343C28.225 358.014 29.395 382.694 33.101 407.933C33.701 412.022 34.357 416.67 34.559 418.263C34.76 419.856 35.617 423.86 36.463 427.16C37.308 430.461 38 434.498 38 436.13C38 437.763 38.622 440.314 39.382 441.8C40.142 443.285 41.097 446.508 41.505 448.962C41.913 451.415 42.624 454.115 43.084 454.962C43.544 455.808 45.102 460.435 46.547 465.245C47.992 470.055 49.585 474.244 50.087 474.554C50.589 474.864 51.003 475.879 51.006 476.809C51.01 477.739 51.685 479.789 52.506 481.364C53.328 482.94 54 484.67 54 485.21C54 486.88 70.603 520.266 75.835 529.118C80.818 537.547 86.726 546.619 88.877 549.142C90.608 551.173 95.626 557.973 98.735 562.5C100.245 564.7 101.71 566.725 101.991 567C102.271 567.275 105.875 571.311 110 575.969C126.887 595.037 143.133 610.619 154.345 618.5C156.692 620.15 159.938 622.765 161.556 624.311C164.429 627.055 177.507 636.042 183.5 639.389C185.15 640.311 190.55 643.538 195.5 646.561C200.45 649.584 206.975 653.233 210 654.67C213.025 656.108 218.14 658.624 221.366 660.263C226.118 662.675 227.398 662.981 228.101 661.871C228.579 661.117 228.976 660.028 228.985 659.45C228.993 658.873 229.526 657.874 230.168 657.232C231.386 656.014 231.919 654.671 236.409 641.5C237.909 637.1 239.767 632.15 240.538 630.5C243.107 625.002 247.145 614.541 247.979 611.222C248.432 609.419 249.221 607.394 249.732 606.722C250.244 606.05 251.927 601.9 253.472 597.5C255.018 593.1 256.669 589.072 257.141 588.55C257.613 588.027 258 586.952 258 586.16C258 585.367 258.858 582.87 259.906 580.61C260.955 578.349 263.22 572.45 264.94 567.5C266.66 562.55 268.727 557.226 269.534 555.669C270.34 554.112 271 552.38 271 551.82C271 551.26 271.638 549.384 272.418 547.651C276.208 539.229 278 534.615 278 533.277C278 532.469 278.624 530.614 279.387 529.154C280.15 527.694 282.426 522 284.444 516.5C286.462 511 288.711 505.15 289.443 503.5C290.843 500.342 296.796 484.675 297.672 481.842C298.303 479.802 296.725 478.375 286.255 471.52C274.303 463.695 263.298 454.043 257.125 445.975C256.231 444.806 253.813 441.755 251.75 439.193C249.687 436.632 248 434.036 248 433.423C248 432.811 247.1 431.495 246 430.5C244.9 429.505 244 428.148 244 427.485C244 426.822 242.986 424.754 241.747 422.89C236.621 415.176 229.734 394.722 227.536 380.685C224.85 363.526 226.159 337.876 230.346 325.607C231.116 323.348 232.284 319.7 232.94 317.5C234.442 312.461 234.939 311.285 239.7 301.5C245.842 288.879 254.529 276.534 263.878 267.142C273.071 257.907 279.497 252 280.351 252C280.638 252 283.725 250.087 287.211 247.75C293.649 243.433 295.088 242.667 307.5 236.949C316.683 232.718 321.772 231.279 338 228.32C349.266 226.266 353.486 225.946 363.5 226.387C375.936 226.934 393.876 229.791 397.684 231.83C398.886 232.474 400.796 233 401.929 233C405.381 233 423.959 242.053 433.5 248.385C451.394 260.26 464.106 273.742 475.345 292.762C479.005 298.957 482 304.487 482 305.052C482 305.617 482.9 307.844 484 310C485.1 312.156 486 314.838 486 315.96C486 317.082 486.392 318 486.872 318C487.352 318 488.021 319.73 488.359 321.845C488.697 323.96 489.621 327.897 490.413 330.595C492.893 339.055 494.212 360.698 492.984 372.784C491.703 385.379 486.601 406.155 483.206 412.596C482.654 413.643 480.742 417.425 478.958 421C468.683 441.583 451.09 460.78 430.665 473.698L421.831 479.285L422.507 482.893C422.879 484.877 423.773 487.625 424.493 489C425.213 490.375 427.484 496 429.538 501.5C431.593 507 433.887 512.807 434.637 514.404C435.387 516.001 436.014 518.026 436.032 518.904C436.049 519.782 436.724 521.374 437.532 522.441C438.339 523.509 439 525.139 439 526.064C439 527.821 442.062 535.592 444.552 540.154C445.348 541.614 446 543.428 446 544.185C446 544.941 447.575 549.295 449.5 553.86C451.425 558.424 453 563.023 453 564.079C453 565.136 453.39 566 453.868 566C454.345 566 455.951 569.679 457.437 574.175C458.923 578.671 461.457 585.258 463.069 588.813C464.681 592.368 466 596.024 466 596.938C466 597.852 466.421 599.027 466.936 599.55C467.451 600.072 469.013 604.006 470.408 608.29C471.802 612.575 473.631 617.062 474.471 618.263C475.312 619.463 476 621.251 476 622.236C476 623.221 476.414 624.809 476.92 625.764C477.426 626.719 478.808 630.2 479.99 633.5C481.173 636.8 482.791 640.85 483.586 642.5C484.381 644.15 486.087 648.528 487.376 652.23C489.764 659.08 491.499 662 493.184 662C494.225 662 503.816 657.818 508.5 655.322C515.944 651.355 520.726 648.679 523.5 646.926C525.15 645.883 527.558 644.567 528.851 644.001C531.978 642.633 542.411 635.745 542.833 634.77C543.017 634.346 543.692 633.995 544.333 633.989C544.975 633.984 547.75 632.154 550.5 629.924C553.25 627.694 557.075 624.761 559 623.406C566.74 617.957 569.355 615.899 576.243 609.83C593.766 594.394 609.451 577.636 623.208 559.654C625.798 556.269 628.385 552.956 628.958 552.292C629.531 551.628 630 550.822 630 550.502C630 549.955 633.907 544.093 635 543C636.035 541.965 640 536.059 640 535.553C640 535.263 642.852 530.182 646.337 524.262C649.823 518.343 655.036 508.55 657.922 502.5C665.013 487.636 664.992 487.688 670.194 472.5C671.324 469.2 673.063 464.475 674.058 462C675.053 459.525 677.501 450.975 679.497 443C684.735 422.076 685.802 417.162 686.446 411C686.762 407.975 687.475 403.25 688.03 400.5C689.366 393.883 690.108 339.689 689.003 329.5C687.666 317.175 686.022 305.958 684.827 301C684.23 298.525 683.15 293.575 682.426 290C679.824 277.143 678.972 273.415 677.398 268C676.519 264.975 675.405 261.6 674.922 260.5C674.439 259.4 672.961 255.125 671.636 251C669.235 243.524 666.978 237.881 664.373 232.846C663.618 231.386 663 229.65 663 228.989C663 228.327 660.362 222.547 657.138 216.143C646.357 194.728 641.451 186.282 632.139 173.107C628.487 167.94 624.15 161.804 622.5 159.471C610.576 142.607 568.143 100.848 557 95.01C555.625 94.29 554.255 93.329 553.956 92.875C553.359 91.968 530.251 76.646 524.867 73.587C520.501 71.107 500.079 60.93 493 57.708C481.217 52.344 464.981 46.588 444.5 40.515C441.75 39.699 434.55 38.119 428.5 37.002C422.45 35.886 414.35 34.32 410.5 33.522C393.499 29.998 351.47 29.024 323.903 31.515Z" fill="#3EA63A" stroke="#1D531C" stroke-width="4" mask="url(#path-1-inside-1_7_249)"/>
<mask id="path-2-inside-2_7_249" fill="white">
<path fill-rule="evenodd" clip-rule="evenodd" d="M323 4.55605C318.325 5.26705 311.194 5.88305 307.154 5.92505C302.7 5.97005 298.764 6.57805 297.154 7.46805C295.694 8.27605 291.8 9.35605 288.5 9.86905C285.2 10.3811 277.859 11.9701 272.186 13.4001C266.514 14.8301 260.889 16.0141 259.686 16.0321C258.484 16.0491 256.626 16.7241 255.559 17.5321C254.491 18.3391 252.605 19.0001 251.368 19.0001C250.13 19.0001 248.874 19.3951 248.576 19.8771C248.278 20.3591 244.089 21.9671 239.267 23.4501C234.445 24.9331 228.67 27.0141 226.434 28.0731C224.198 29.1331 221.836 30.0001 221.184 30.0001C220.533 30.0001 220 30.4501 220 31.0001C220 31.5501 219.446 32.0001 218.769 32.0001C217.075 32.0001 207.354 36.0231 202.5 38.7331C196.223 42.2381 188.232 46.0001 187.064 46.0001C186.479 46.0001 186 46.3781 186 46.8391C186 47.3011 184.988 48.2111 183.75 48.8601C177.776 51.9961 169.586 56.9491 163.26 61.2501C159.418 63.8621 155.763 66.0001 155.137 66.0001C154.512 66.0001 154 66.4501 154 67.0001C154 67.5501 153.341 68.0001 152.535 68.0001C151.73 68.0001 150.643 68.7871 150.121 69.7501C149.599 70.7131 147.446 72.4001 145.336 73.5001C143.226 74.6001 139.925 77.0031 138 78.8391C136.075 80.6751 130.225 85.8311 125 90.2961C112.536 100.947 92.362 121.385 84.784 131.04C83.29 132.943 80.122 136.975 77.745 140C75.368 143.025 71.206 148.65 68.495 152.5C65.785 156.35 63.29 159.725 62.951 160C62.3 160.527 54.559 173.071 51.996 177.753C51.168 179.264 48.356 184.14 45.746 188.588C43.136 193.036 41 196.957 41 197.3C41 197.903 34.792 210.956 33.057 214C32.29 215.345 28.22 225.583 25.449 233.137C24.871 234.712 23.859 236.541 23.199 237.201C22.54 237.86 22 239.573 22 241.006C22 243.168 19.645 251.634 17.273 258C13.34 268.555 12.008 272.998 12.004 275.568C12.002 277.256 11.344 280.856 10.541 283.568C9.73903 286.281 8.60102 291.875 8.01202 296C4.86102 318.082 4.09502 322.889 3.06702 327.006C2.31702 330.009 2.05202 341.684 2.27102 362.006C2.61502 393.976 2.93202 397.094 9.03502 428.5C10.211 434.55 11.41 441.746 11.699 444.492C11.989 447.238 12.85 450.375 13.613 451.465C14.376 452.554 15 454.289 15 455.321C15 456.353 15.608 458.616 16.352 460.349C18.445 465.227 22 477.407 22 479.699C22 480.83 22.675 482.315 23.5 483C24.325 483.685 25 484.908 25 485.718C25 486.528 25.62 488.386 26.378 489.846C27.135 491.306 28.745 495.2 29.955 498.5C31.95 503.94 34.687 510.032 36.919 514C37.383 514.825 38.744 517.75 39.943 520.5C41.143 523.25 42.537 526.175 43.043 527C48.943 536.626 50.891 540.081 51.499 541.997C51.894 543.243 53.272 545.445 54.561 546.891C55.849 548.337 58.068 551.711 59.491 554.388C60.915 557.065 64.086 561.863 66.54 565.052C68.993 568.24 71.006 571.22 71.012 571.674C71.019 572.128 72.816 574.429 75.005 576.786C77.194 579.143 79.664 582.383 80.493 583.986C81.322 585.589 82.574 587.26 83.276 587.7C83.978 588.14 88.652 593.225 93.663 599C103.529 610.369 131.006 637 132.871 637C133.324 637 141.626 643.618 143.821 645.729C144.548 646.428 145.763 647 146.522 647C147.28 647 148.26 647.575 148.7 648.277C149.98 650.32 156.929 655.358 164.583 659.791C168.479 662.048 172.247 664.593 172.956 665.447C173.665 666.301 175.052 667 176.039 667C177.026 667 177.983 667.393 178.167 667.872C178.35 668.352 180.75 669.931 183.5 671.381C186.25 672.831 189.175 674.447 190 674.972C190.825 675.497 194.045 677.043 197.156 678.407C200.267 679.771 203.106 681.362 203.465 681.943C203.824 682.525 204.969 683 206.009 683C207.05 683 208.26 683.581 208.7 684.291C209.14 685.002 211.075 686.086 213 686.701C218.818 688.559 223.403 690.22 225.232 691.131C226.185 691.606 229.31 692.886 232.177 693.975C236.794 695.73 237.578 695.787 239.024 694.478C239.922 693.665 241.331 693 242.154 693C243.757 693 248 688.975 248 687.455C248 685.998 252.017 676.027 255.139 669.735C256.713 666.565 258 662.879 258 661.544C258 660.21 258.388 658.878 258.863 658.585C259.337 658.291 260.312 655.902 261.029 653.276C261.745 650.649 262.932 647.612 263.666 646.527C264.4 645.443 265 643.803 265 642.884C265 641.966 265.675 640.955 266.5 640.638C267.325 640.322 268 638.895 268 637.467C268 636.039 268.944 632.537 270.097 629.685C271.25 626.833 272.925 622.7 273.819 620.5C274.713 618.3 275.811 616.239 276.258 615.919C276.705 615.6 277.347 613.575 277.685 611.419C278.023 609.264 278.907 606.612 279.65 605.527C280.392 604.443 281 602.762 281 601.793C281 600.825 282.328 597.29 283.951 593.939C285.575 590.588 287.636 585.323 288.533 582.239C290.014 577.144 291.595 573.122 295.504 564.5C296.252 562.85 297.995 558.125 299.376 554C302.704 544.066 304.748 539.274 305.985 538.509C306.543 538.164 307 536.837 307 535.56C307 532.978 311.619 520.039 313.073 518.55C313.583 518.027 314 516.62 314 515.422C314 514.225 314.64 512.714 315.422 512.065C316.204 511.416 317.143 509.113 317.509 506.948C317.875 504.782 318.585 502.757 319.087 502.446C319.589 502.136 320 501.104 320 500.152C320 499.201 320.9 496.658 322 494.5C323.1 492.342 324 490.052 324 489.411C324 488.77 324.628 487.724 325.395 487.087C326.162 486.451 327.02 484.483 327.302 482.715C327.584 480.947 328.325 477.517 328.948 475.094C329.889 471.432 329.805 470.109 328.451 467.255C326.727 463.623 323.577 460 322.142 460C320.87 460 307.751 453.058 305.921 451.416C305.053 450.637 303.753 450 303.032 450C300.82 450 288.628 439.54 280.538 430.7C272.912 422.367 268.091 415.641 268.031 413.25C268.014 412.562 267.164 411.164 266.142 410.142C264.077 408.077 258 392.943 258 389.865C258 388.785 257.387 386.686 256.638 385.2C252.6 377.194 252.622 342.162 256.669 334.5C257.25 333.4 258.029 330.475 258.398 328C259.096 323.33 264.224 311.633 266.625 309.232C267.381 308.476 268 307.242 268 306.49C268 304.142 279.456 289.802 286.767 283C296.245 274.181 297.796 272.957 303 270.189C305.475 268.872 307.725 267.448 308 267.023C308.275 266.598 310.975 265.253 314 264.033C317.025 262.813 321.349 260.956 323.61 259.907C325.87 258.858 328.367 258 329.16 258C329.952 258 331.027 257.575 331.55 257.055C332.072 256.535 339.18 255.354 347.344 254.431C361.139 252.87 362.977 252.867 373.344 254.385C385.168 256.116 394.636 258.683 396.821 260.75C397.548 261.438 399.22 262 400.537 262C403.136 262 415.078 268.185 417.037 270.545C417.701 271.345 418.775 272 419.423 272C421.823 272 446 295.275 446 297.585C446 298.203 447.012 299.809 448.25 301.154C449.488 302.5 451.685 306.053 453.133 309.05C454.581 312.048 457.177 317.425 458.902 321C463.841 331.24 465.963 343.035 465.919 360C465.898 367.975 465.491 376.525 465.015 379C463.54 386.67 461.993 392.355 460.391 396C454.412 409.6 452.121 414.014 448.871 418.191C447.292 420.222 446 422.17 446 422.52C446 423.087 439.154 431.308 433.385 437.668C432.222 438.951 430.619 440 429.823 440C429.027 440 427.36 441.374 426.119 443.053C424.878 444.732 422.655 446.637 421.181 447.286C419.706 447.935 415.604 450.386 412.064 452.733C408.524 455.08 405.121 457 404.502 457C402.053 457 394.994 461.143 393.873 463.238C393.219 464.459 392.08 466.063 391.342 466.801C389.595 468.548 389.626 474.36 391.404 478.349C392.176 480.082 393.816 484.65 395.048 488.5C396.28 492.35 397.674 496.175 398.146 497C398.619 497.825 399.454 499.625 400.003 501C400.552 502.375 401.393 504.19 401.873 505.033C402.353 505.876 403.085 508.126 403.501 510.033C403.916 511.94 404.873 514.388 405.628 515.473C406.382 516.557 407 518.64 407 520.1C407 521.56 407.675 523.315 408.5 524C409.325 524.685 410 526.063 410 527.063C410 528.064 410.377 529.115 410.839 529.4C411.3 529.685 412.96 533.875 414.527 538.709C416.094 543.544 417.967 548.21 418.688 549.079C419.41 549.947 420 551.804 420 553.206C420 554.608 420.675 556.315 421.5 557C422.325 557.685 423.003 559.202 423.006 560.372C423.01 561.543 423.642 563.707 424.412 565.183C425.182 566.658 426.115 569.246 426.485 570.933C426.856 572.621 428.277 576.104 429.643 578.673C431.009 581.242 433.033 586.304 434.141 589.922C435.249 593.54 436.993 598.3 438.018 600.5C441.298 607.544 446 619.813 446 621.328C446 622.135 447.309 625.432 448.908 628.656C452.156 635.203 456 646.034 456 648.64C456 649.576 456.608 651.053 457.351 651.921C458.094 652.79 459.736 656.2 461 659.5C462.264 662.8 463.906 666.918 464.649 668.651C465.392 670.384 466 672.692 466 673.779C466 674.866 466.675 676.315 467.5 677C468.325 677.685 469.009 679.202 469.019 680.372C469.052 684.043 474.629 691.73 478.641 693.634C483.94 696.148 485.568 695.88 495.198 690.909C497.232 689.859 499.558 689 500.367 689C501.176 689 503.337 688.249 505.169 687.331C507.001 686.413 509.364 685.236 510.419 684.717C511.475 684.197 515.658 682.023 519.717 679.886C523.775 677.749 527.925 676 528.941 676C529.956 676 531.003 675.438 531.268 674.75C531.532 674.063 535.255 671.7 539.541 669.5C543.826 667.3 548.464 664.473 549.847 663.218C552.432 660.872 555.087 659.265 560.75 656.62C562.538 655.785 564.003 654.742 564.007 654.301C564.011 653.86 565.698 652.388 567.757 651.03C572.778 647.716 583.255 639.844 584.5 638.45C585.05 637.834 587.75 635.568 590.5 633.415C593.25 631.262 595.86 628.938 596.3 628.25C596.74 627.563 597.447 627 597.873 627C598.79 627 621.631 604.385 627.789 597.379C635.894 588.159 645.209 576.497 646.264 574.25C646.846 573.013 647.699 572 648.161 572C648.622 572 649 571.311 649 570.469C649 569.626 649.709 568.665 650.577 568.332C651.444 567.999 652.568 566.776 653.074 565.614C654.167 563.106 655.934 560.341 658 557.909C660.62 554.825 661.431 553.538 664.5 547.598C666.15 544.404 668.533 540.668 669.795 539.296C671.057 537.923 672.349 535.505 672.666 533.922C672.982 532.34 673.862 530.53 674.621 529.9C675.379 529.27 676 528.38 676 527.922C676 527.463 677.298 524.887 678.884 522.196C680.471 519.506 682.099 516.223 682.504 514.902C682.908 513.581 685.162 508.45 687.512 503.5C689.863 498.55 692.087 493.375 692.456 492C692.824 490.625 693.535 488.6 694.036 487.5C695.691 483.862 698.182 476.543 698.704 473.782C698.986 472.287 699.844 470.545 700.609 469.91C701.374 469.275 702 467.676 702 466.356C702 464.014 704.753 453.008 707.592 444C708.372 441.525 709.008 438.577 709.005 437.45C709.002 436.322 709.472 434.928 710.049 434.351C710.625 433.775 711.551 428.847 712.105 423.401C712.66 417.956 713.51 411.7 713.995 409.5C716.026 400.28 717.213 375.187 716.676 352.777C716.05 326.604 715.6 320.266 713.481 307.75C712.667 302.937 712 297.119 712 294.82C712 291.134 710.181 283.966 706.843 274.5C706.262 272.85 705.4 269.7 704.929 267.5C702.343 255.421 701.27 251.208 700.093 248.5C696.744 240.797 695.998 238.847 695.966 237.716C695.947 237.047 695.063 234.7 694 232.5C692.937 230.3 692.053 227.289 692.034 225.809C692.015 224.329 691.525 222.824 690.943 222.465C690.362 222.106 688.762 219.267 687.388 216.156C682.976 206.171 671.573 183.544 670.266 182.179C669.57 181.452 669 180.362 669 179.757C669 179.152 668.333 177.92 667.518 177.02C666.703 176.119 665.015 173.538 663.768 171.284C659.424 163.436 647.877 146.997 643.75 142.786C642.788 141.804 642 140.607 642 140.126C642 139.645 640.538 137.619 638.75 135.624C636.962 133.629 632.8 128.773 629.5 124.833C626.2 120.893 621.138 115.356 618.25 112.527C615.362 109.699 613 106.848 613 106.192C613 105.537 612.438 104.998 611.75 104.996C611.063 104.994 608.481 102.856 606.013 100.246C603.545 97.6361 600.255 94.7021 598.701 93.7271C597.148 92.7521 594.172 90.2771 592.09 88.2271C590.007 86.1771 587.673 84.0361 586.902 83.4701C586.131 82.9031 582.35 79.9501 578.5 76.9071C570.168 70.3221 558.314 62.0021 557.255 61.9951C556.84 61.9931 555.15 60.7271 553.5 59.1831C551.85 57.6391 548.025 55.1501 545 53.6521C541.975 52.1541 538.15 50.0661 536.5 49.0111C534.85 47.9561 529.337 44.9881 524.25 42.4161C519.163 39.8441 515 37.3481 515 36.8701C515 36.3911 514.037 36.0001 512.86 36.0001C511.682 36.0001 508.645 35.0271 506.11 33.8381C493.037 27.7051 488.912 25.9821 482.5 23.9781C478.65 22.7741 474.082 21.1611 472.349 20.3951C470.616 19.6281 468.366 18.9861 467.349 18.9681C466.332 18.9511 464.626 18.2761 463.559 17.4681C462.491 16.6611 460.383 16.0001 458.874 16.0001C457.365 16.0001 454.866 15.5191 453.32 14.9311C451.774 14.3441 447.357 13.2051 443.505 12.4011C439.652 11.5961 433.79 10.3671 430.477 9.66805C427.165 8.97005 423.814 8.00305 423.031 7.51905C422.249 7.03605 417.534 6.30205 412.554 5.89005C407.574 5.47705 400.125 4.67205 396 4.10105C385.382 2.63005 333.534 2.95305 323 4.55605ZM390.696 31.0351C397.738 31.6051 406.65 32.7241 410.5 33.5221C414.35 34.3201 422.45 35.8861 428.5 37.0021C434.55 38.1191 441.75 39.6991 444.5 40.5151C464.981 46.5881 481.217 52.3441 493 57.7081C500.079 60.9301 520.501 71.1071 524.867 73.5871C530.251 76.6461 553.359 91.9681 553.956 92.8751C554.255 93.3291 555.625 94.2901 557 95.0101C568.143 100.848 610.576 142.607 622.5 159.471C624.15 161.804 628.487 167.94 632.139 173.107C641.451 186.282 646.357 194.728 657.138 216.143C660.362 222.547 663 228.327 663 228.989C663 229.65 663.618 231.386 664.373 232.846C666.978 237.881 669.235 243.524 671.636 251C672.961 255.125 674.439 259.4 674.922 260.5C675.405 261.6 676.519 264.975 677.398 268C678.972 273.415 679.824 277.143 682.426 290C683.15 293.575 684.23 298.525 684.827 301C686.022 305.958 687.666 317.175 689.003 329.5C690.108 339.689 689.366 393.883 688.03 400.5C687.475 403.25 686.762 407.975 686.446 411C685.802 417.162 684.735 422.076 679.497 443C677.501 450.975 675.053 459.525 674.058 462C673.063 464.475 671.324 469.2 670.194 472.5C664.992 487.688 665.013 487.636 657.922 502.5C655.036 508.55 649.823 518.343 646.337 524.262C642.852 530.182 640 535.263 640 535.553C640 536.059 636.035 541.965 635 543C633.907 544.093 630 549.955 630 550.502C630 550.822 629.531 551.628 628.958 552.292C628.385 552.956 625.798 556.269 623.208 559.654C609.451 577.636 593.766 594.394 576.243 609.83C569.355 615.899 566.74 617.957 559 623.406C557.075 624.761 553.25 627.694 550.5 629.924C547.75 632.154 544.975 633.984 544.333 633.989C543.692 633.995 543.017 634.346 542.833 634.77C542.411 635.745 531.978 642.633 528.851 644.001C527.558 644.567 525.15 645.883 523.5 646.926C520.726 648.679 515.944 651.355 508.5 655.322C503.816 657.818 494.225 662 493.184 662C491.499 662 489.764 659.08 487.376 652.23C486.087 648.528 484.381 644.15 483.586 642.5C482.791 640.85 481.173 636.8 479.99 633.5C478.808 630.2 477.426 626.719 476.92 625.764C476.414 624.809 476 623.221 476 622.236C476 621.251 475.312 619.463 474.471 618.263C473.631 617.062 471.802 612.575 470.408 608.29C469.013 604.006 467.451 600.072 466.936 599.55C466.421 599.027 466 597.852 466 596.938C466 596.024 464.681 592.368 463.069 588.813C461.457 585.258 458.923 578.671 457.437 574.175C455.951 569.679 454.345 566 453.868 566C453.39 566 453 565.136 453 564.079C453 563.023 451.425 558.424 449.5 553.86C447.575 549.295 446 544.941 446 544.185C446 543.428 445.348 541.614 444.552 540.154C442.062 535.592 439 527.821 439 526.064C439 525.139 438.339 523.509 437.532 522.441C436.724 521.374 436.049 519.782 436.032 518.904C436.014 518.026 435.387 516.001 434.637 514.404C433.887 512.807 431.593 507 429.538 501.5C427.484 496 425.213 490.375 424.493 489C423.773 487.625 422.879 484.877 422.507 482.893L421.831 479.285L430.665 473.698C451.09 460.78 468.683 441.583 478.958 421C480.742 417.425 482.654 413.643 483.206 412.596C486.601 406.155 491.703 385.379 492.984 372.784C494.212 360.698 492.893 339.055 490.413 330.595C489.621 327.897 488.697 323.96 488.359 321.845C488.021 319.73 487.352 318 486.872 318C486.392 318 486 317.082 486 315.96C486 314.838 485.1 312.156 484 310C482.9 307.844 482 305.617 482 305.052C482 304.487 479.005 298.957 475.345 292.762C464.106 273.742 451.394 260.26 433.5 248.385C423.959 242.053 405.381 233 401.929 233C400.796 233 398.886 232.474 397.684 231.83C393.876 229.791 375.936 226.934 363.5 226.387C353.486 225.946 349.266 226.266 338 228.32C321.772 231.279 316.683 232.718 307.5 236.949C295.088 242.667 293.649 243.433 287.211 247.75C283.725 250.087 280.638 252 280.351 252C279.497 252 273.071 257.907 263.878 267.142C254.529 276.534 245.842 288.879 239.7 301.5C234.939 311.285 234.442 312.461 232.94 317.5C232.284 319.7 231.116 323.348 230.346 325.607C226.159 337.876 224.85 363.526 227.536 380.685C229.734 394.722 236.621 415.176 241.747 422.89C242.986 424.754 244 426.822 244 427.485C244 428.148 244.9 429.505 246 430.5C247.1 431.495 248 432.811 248 433.423C248 434.036 249.687 436.632 251.75 439.193C253.813 441.755 256.231 444.806 257.125 445.975C263.298 454.043 274.303 463.695 286.255 471.52C296.725 478.375 298.303 479.802 297.672 481.842C296.796 484.675 290.843 500.342 289.443 503.5C288.711 505.15 286.462 511 284.444 516.5C282.426 522 280.15 527.694 279.387 529.154C278.624 530.614 278 532.469 278 533.277C278 534.615 276.208 539.229 272.418 547.651C271.638 549.384 271 551.26 271 551.82C271 552.38 270.34 554.112 269.534 555.669C268.727 557.226 266.66 562.55 264.94 567.5C263.22 572.45 260.955 578.349 259.906 580.61C258.858 582.87 258 585.367 258 586.16C258 586.952 257.613 588.027 257.141 588.55C256.669 589.072 255.018 593.1 253.472 597.5C251.927 601.9 250.244 606.05 249.732 606.722C249.221 607.394 248.432 609.419 247.979 611.222C247.145 614.541 243.107 625.002 240.538 630.5C239.767 632.15 237.909 637.1 236.409 641.5C231.919 654.671 231.386 656.014 230.168 657.232C229.526 657.874 228.993 658.873 228.985 659.45C228.976 660.028 228.579 661.117 228.101 661.871C227.398 662.981 226.118 662.675 221.366 660.263C218.14 658.624 213.025 656.108 210 654.67C206.975 653.233 200.45 649.584 195.5 646.561C190.55 643.538 185.15 640.311 183.5 639.389C177.507 636.042 164.429 627.055 161.556 624.311C159.938 622.765 156.692 620.15 154.345 618.5C143.133 610.619 126.887 595.037 110 575.969C105.875 571.311 102.271 567.275 101.991 567C101.71 566.725 100.245 564.7 98.735 562.5C95.626 557.973 90.608 551.173 88.877 549.142C86.726 546.619 80.818 537.547 75.835 529.118C70.603 520.266 54 486.88 54 485.21C54 484.67 53.328 482.94 52.506 481.364C51.685 479.789 51.01 477.739 51.006 476.809C51.003 475.879 50.589 474.864 50.087 474.554C49.585 474.244 47.992 470.055 46.547 465.245C45.102 460.435 43.544 455.808 43.084 454.962C42.624 454.115 41.913 451.415 41.505 448.962C41.097 446.508 40.142 443.285 39.382 441.8C38.622 440.314 38 437.763 38 436.13C38 434.498 37.308 430.461 36.463 427.16C35.617 423.86 34.76 419.856 34.559 418.263C34.357 416.67 33.701 412.022 33.101 407.933C29.395 382.694 28.225 358.014 30.024 343C30.584 338.325 31.445 329.55 31.936 323.5C33.016 310.202 36.947 286.806 39.161 280.5C39.74 278.85 40.557 275.7 40.975 273.5C41.989 268.175 48.993 246.753 50.115 245.55C50.602 245.028 51.015 243.903 51.034 243.05C51.053 242.197 51.937 239.7 53 237.5C54.063 235.3 54.947 233.194 54.966 232.819C54.995 232.241 58.895 223.644 65.772 209C66.676 207.075 68.223 204.306 69.208 202.846C70.194 201.386 71 199.569 71 198.808C71 198.047 72.332 195.866 73.959 193.962C75.587 192.058 76.937 190.1 76.959 189.61C77 188.72 84.155 177.838 92.209 166.415C105.152 148.062 129.694 121.57 145.632 108.749C149.409 105.71 154.075 101.778 156 100.012C159.201 97.0741 162.776 94.4961 174.383 86.7531C181.425 82.0551 182.172 81.5441 184.366 79.9201C185.54 79.0511 187.175 78.0381 188 77.6681C188.825 77.2981 192.2 75.4221 195.5 73.5001C202.093 69.6601 222.829 59.1871 227.531 57.3231C233.559 54.9331 243.559 50.8851 245.5 50.0501C249.763 48.2151 269.866 42.1361 277 40.5261C281.125 39.5941 286.525 38.2311 289 37.4971C291.475 36.7631 295.75 35.8641 298.5 35.5001C301.25 35.1361 305.031 34.3671 306.903 33.7911C317.03 30.6751 366.228 29.0571 390.696 31.0351Z"/>
</mask>
<path fill-rule="evenodd" clip-rule="evenodd" d="M323 4.55605C318.325 5.26705 311.194 5.88305 307.154 5.92505C302.7 5.97005 298.764 6.57805 297.154 7.46805C295.694 8.27605 291.8 9.35605 288.5 9.86905C285.2 10.3811 277.859 11.9701 272.186 13.4001C266.514 14.8301 260.889 16.0141 259.686 16.0321C258.484 16.0491 256.626 16.7241 255.559 17.5321C254.491 18.3391 252.605 19.0001 251.368 19.0001C250.13 19.0001 248.874 19.3951 248.576 19.8771C248.278 20.3591 244.089 21.9671 239.267 23.4501C234.445 24.9331 228.67 27.0141 226.434 28.0731C224.198 29.1331 221.836 30.0001 221.184 30.0001C220.533 30.0001 220 30.4501 220 31.0001C220 31.5501 219.446 32.0001 218.769 32.0001C217.075 32.0001 207.354 36.0231 202.5 38.7331C196.223 42.2381 188.232 46.0001 187.064 46.0001C186.479 46.0001 186 46.3781 186 46.8391C186 47.3011 184.988 48.2111 183.75 48.8601C177.776 51.9961 169.586 56.9491 163.26 61.2501C159.418 63.8621 155.763 66.0001 155.137 66.0001C154.512 66.0001 154 66.4501 154 67.0001C154 67.5501 153.341 68.0001 152.535 68.0001C151.73 68.0001 150.643 68.7871 150.121 69.7501C149.599 70.7131 147.446 72.4001 145.336 73.5001C143.226 74.6001 139.925 77.0031 138 78.8391C136.075 80.6751 130.225 85.8311 125 90.2961C112.536 100.947 92.362 121.385 84.784 131.04C83.29 132.943 80.122 136.975 77.745 140C75.368 143.025 71.206 148.65 68.495 152.5C65.785 156.35 63.29 159.725 62.951 160C62.3 160.527 54.559 173.071 51.996 177.753C51.168 179.264 48.356 184.14 45.746 188.588C43.136 193.036 41 196.957 41 197.3C41 197.903 34.792 210.956 33.057 214C32.29 215.345 28.22 225.583 25.449 233.137C24.871 234.712 23.859 236.541 23.199 237.201C22.54 237.86 22 239.573 22 241.006C22 243.168 19.645 251.634 17.273 258C13.34 268.555 12.008 272.998 12.004 275.568C12.002 277.256 11.344 280.856 10.541 283.568C9.73903 286.281 8.60102 291.875 8.01202 296C4.86102 318.082 4.09502 322.889 3.06702 327.006C2.31702 330.009 2.05202 341.684 2.27102 362.006C2.61502 393.976 2.93202 397.094 9.03502 428.5C10.211 434.55 11.41 441.746 11.699 444.492C11.989 447.238 12.85 450.375 13.613 451.465C14.376 452.554 15 454.289 15 455.321C15 456.353 15.608 458.616 16.352 460.349C18.445 465.227 22 477.407 22 479.699C22 480.83 22.675 482.315 23.5 483C24.325 483.685 25 484.908 25 485.718C25 486.528 25.62 488.386 26.378 489.846C27.135 491.306 28.745 495.2 29.955 498.5C31.95 503.94 34.687 510.032 36.919 514C37.383 514.825 38.744 517.75 39.943 520.5C41.143 523.25 42.537 526.175 43.043 527C48.943 536.626 50.891 540.081 51.499 541.997C51.894 543.243 53.272 545.445 54.561 546.891C55.849 548.337 58.068 551.711 59.491 554.388C60.915 557.065 64.086 561.863 66.54 565.052C68.993 568.24 71.006 571.22 71.012 571.674C71.019 572.128 72.816 574.429 75.005 576.786C77.194 579.143 79.664 582.383 80.493 583.986C81.322 585.589 82.574 587.26 83.276 587.7C83.978 588.14 88.652 593.225 93.663 599C103.529 610.369 131.006 637 132.871 637C133.324 637 141.626 643.618 143.821 645.729C144.548 646.428 145.763 647 146.522 647C147.28 647 148.26 647.575 148.7 648.277C149.98 650.32 156.929 655.358 164.583 659.791C168.479 662.048 172.247 664.593 172.956 665.447C173.665 666.301 175.052 667 176.039 667C177.026 667 177.983 667.393 178.167 667.872C178.35 668.352 180.75 669.931 183.5 671.381C186.25 672.831 189.175 674.447 190 674.972C190.825 675.497 194.045 677.043 197.156 678.407C200.267 679.771 203.106 681.362 203.465 681.943C203.824 682.525 204.969 683 206.009 683C207.05 683 208.26 683.581 208.7 684.291C209.14 685.002 211.075 686.086 213 686.701C218.818 688.559 223.403 690.22 225.232 691.131C226.185 691.606 229.31 692.886 232.177 693.975C236.794 695.73 237.578 695.787 239.024 694.478C239.922 693.665 241.331 693 242.154 693C243.757 693 248 688.975 248 687.455C248 685.998 252.017 676.027 255.139 669.735C256.713 666.565 258 662.879 258 661.544C258 660.21 258.388 658.878 258.863 658.585C259.337 658.291 260.312 655.902 261.029 653.276C261.745 650.649 262.932 647.612 263.666 646.527C264.4 645.443 265 643.803 265 642.884C265 641.966 265.675 640.955 266.5 640.638C267.325 640.322 268 638.895 268 637.467C268 636.039 268.944 632.537 270.097 629.685C271.25 626.833 272.925 622.7 273.819 620.5C274.713 618.3 275.811 616.239 276.258 615.919C276.705 615.6 277.347 613.575 277.685 611.419C278.023 609.264 278.907 606.612 279.65 605.527C280.392 604.443 281 602.762 281 601.793C281 600.825 282.328 597.29 283.951 593.939C285.575 590.588 287.636 585.323 288.533 582.239C290.014 577.144 291.595 573.122 295.504 564.5C296.252 562.85 297.995 558.125 299.376 554C302.704 544.066 304.748 539.274 305.985 538.509C306.543 538.164 307 536.837 307 535.56C307 532.978 311.619 520.039 313.073 518.55C313.583 518.027 314 516.62 314 515.422C314 514.225 314.64 512.714 315.422 512.065C316.204 511.416 317.143 509.113 317.509 506.948C317.875 504.782 318.585 502.757 319.087 502.446C319.589 502.136 320 501.104 320 500.152C320 499.201 320.9 496.658 322 494.5C323.1 492.342 324 490.052 324 489.411C324 488.77 324.628 487.724 325.395 487.087C326.162 486.451 327.02 484.483 327.302 482.715C327.584 480.947 328.325 477.517 328.948 475.094C329.889 471.432 329.805 470.109 328.451 467.255C326.727 463.623 323.577 460 322.142 460C320.87 460 307.751 453.058 305.921 451.416C305.053 450.637 303.753 450 303.032 450C300.82 450 288.628 439.54 280.538 430.7C272.912 422.367 268.091 415.641 268.031 413.25C268.014 412.562 267.164 411.164 266.142 410.142C264.077 408.077 258 392.943 258 389.865C258 388.785 257.387 386.686 256.638 385.2C252.6 377.194 252.622 342.162 256.669 334.5C257.25 333.4 258.029 330.475 258.398 328C259.096 323.33 264.224 311.633 266.625 309.232C267.381 308.476 268 307.242 268 306.49C268 304.142 279.456 289.802 286.767 283C296.245 274.181 297.796 272.957 303 270.189C305.475 268.872 307.725 267.448 308 267.023C308.275 266.598 310.975 265.253 314 264.033C317.025 262.813 321.349 260.956 323.61 259.907C325.87 258.858 328.367 258 329.16 258C329.952 258 331.027 257.575 331.55 257.055C332.072 256.535 339.18 255.354 347.344 254.431C361.139 252.87 362.977 252.867 373.344 254.385C385.168 256.116 394.636 258.683 396.821 260.75C397.548 261.438 399.22 262 400.537 262C403.136 262 415.078 268.185 417.037 270.545C417.701 271.345 418.775 272 419.423 272C421.823 272 446 295.275 446 297.585C446 298.203 447.012 299.809 448.25 301.154C449.488 302.5 451.685 306.053 453.133 309.05C454.581 312.048 457.177 317.425 458.902 321C463.841 331.24 465.963 343.035 465.919 360C465.898 367.975 465.491 376.525 465.015 379C463.54 386.67 461.993 392.355 460.391 396C454.412 409.6 452.121 414.014 448.871 418.191C447.292 420.222 446 422.17 446 422.52C446 423.087 439.154 431.308 433.385 437.668C432.222 438.951 430.619 440 429.823 440C429.027 440 427.36 441.374 426.119 443.053C424.878 444.732 422.655 446.637 421.181 447.286C419.706 447.935 415.604 450.386 412.064 452.733C408.524 455.08 405.121 457 404.502 457C402.053 457 394.994 461.143 393.873 463.238C393.219 464.459 392.08 466.063 391.342 466.801C389.595 468.548 389.626 474.36 391.404 478.349C392.176 480.082 393.816 484.65 395.048 488.5C396.28 492.35 397.674 496.175 398.146 497C398.619 497.825 399.454 499.625 400.003 501C400.552 502.375 401.393 504.19 401.873 505.033C402.353 505.876 403.085 508.126 403.501 510.033C403.916 511.94 404.873 514.388 405.628 515.473C406.382 516.557 407 518.64 407 520.1C407 521.56 407.675 523.315 408.5 524C409.325 524.685 410 526.063 410 527.063C410 528.064 410.377 529.115 410.839 529.4C411.3 529.685 412.96 533.875 414.527 538.709C416.094 543.544 417.967 548.21 418.688 549.079C419.41 549.947 420 551.804 420 553.206C420 554.608 420.675 556.315 421.5 557C422.325 557.685 423.003 559.202 423.006 560.372C423.01 561.543 423.642 563.707 424.412 565.183C425.182 566.658 426.115 569.246 426.485 570.933C426.856 572.621 428.277 576.104 429.643 578.673C431.009 581.242 433.033 586.304 434.141 589.922C435.249 593.54 436.993 598.3 438.018 600.5C441.298 607.544 446 619.813 446 621.328C446 622.135 447.309 625.432 448.908 628.656C452.156 635.203 456 646.034 456 648.64C456 649.576 456.608 651.053 457.351 651.921C458.094 652.79 459.736 656.2 461 659.5C462.264 662.8 463.906 666.918 464.649 668.651C465.392 670.384 466 672.692 466 673.779C466 674.866 466.675 676.315 467.5 677C468.325 677.685 469.009 679.202 469.019 680.372C469.052 684.043 474.629 691.73 478.641 693.634C483.94 696.148 485.568 695.88 495.198 690.909C497.232 689.859 499.558 689 500.367 689C501.176 689 503.337 688.249 505.169 687.331C507.001 686.413 509.364 685.236 510.419 684.717C511.475 684.197 515.658 682.023 519.717 679.886C523.775 677.749 527.925 676 528.941 676C529.956 676 531.003 675.438 531.268 674.75C531.532 674.063 535.255 671.7 539.541 669.5C543.826 667.3 548.464 664.473 549.847 663.218C552.432 660.872 555.087 659.265 560.75 656.62C562.538 655.785 564.003 654.742 564.007 654.301C564.011 653.86 565.698 652.388 567.757 651.03C572.778 647.716 583.255 639.844 584.5 638.45C585.05 637.834 587.75 635.568 590.5 633.415C593.25 631.262 595.86 628.938 596.3 628.25C596.74 627.563 597.447 627 597.873 627C598.79 627 621.631 604.385 627.789 597.379C635.894 588.159 645.209 576.497 646.264 574.25C646.846 573.013 647.699 572 648.161 572C648.622 572 649 571.311 649 570.469C649 569.626 649.709 568.665 650.577 568.332C651.444 567.999 652.568 566.776 653.074 565.614C654.167 563.106 655.934 560.341 658 557.909C660.62 554.825 661.431 553.538 664.5 547.598C666.15 544.404 668.533 540.668 669.795 539.296C671.057 537.923 672.349 535.505 672.666 533.922C672.982 532.34 673.862 530.53 674.621 529.9C675.379 529.27 676 528.38 676 527.922C676 527.463 677.298 524.887 678.884 522.196C680.471 519.506 682.099 516.223 682.504 514.902C682.908 513.581 685.162 508.45 687.512 503.5C689.863 498.55 692.087 493.375 692.456 492C692.824 490.625 693.535 488.6 694.036 487.5C695.691 483.862 698.182 476.543 698.704 473.782C698.986 472.287 699.844 470.545 700.609 469.91C701.374 469.275 702 467.676 702 466.356C702 464.014 704.753 453.008 707.592 444C708.372 441.525 709.008 438.577 709.005 437.45C709.002 436.322 709.472 434.928 710.049 434.351C710.625 433.775 711.551 428.847 712.105 423.401C712.66 417.956 713.51 411.7 713.995 409.5C716.026 400.28 717.213 375.187 716.676 352.777C716.05 326.604 715.6 320.266 713.481 307.75C712.667 302.937 712 297.119 712 294.82C712 291.134 710.181 283.966 706.843 274.5C706.262 272.85 705.4 269.7 704.929 267.5C702.343 255.421 701.27 251.208 700.093 248.5C696.744 240.797 695.998 238.847 695.966 237.716C695.947 237.047 695.063 234.7 694 232.5C692.937 230.3 692.053 227.289 692.034 225.809C692.015 224.329 691.525 222.824 690.943 222.465C690.362 222.106 688.762 219.267 687.388 216.156C682.976 206.171 671.573 183.544 670.266 182.179C669.57 181.452 669 180.362 669 179.757C669 179.152 668.333 177.92 667.518 177.02C666.703 176.119 665.015 173.538 663.768 171.284C659.424 163.436 647.877 146.997 643.75 142.786C642.788 141.804 642 140.607 642 140.126C642 139.645 640.538 137.619 638.75 135.624C636.962 133.629 632.8 128.773 629.5 124.833C626.2 120.893 621.138 115.356 618.25 112.527C615.362 109.699 613 106.848 613 106.192C613 105.537 612.438 104.998 611.75 104.996C611.063 104.994 608.481 102.856 606.013 100.246C603.545 97.6361 600.255 94.7021 598.701 93.7271C597.148 92.7521 594.172 90.2771 592.09 88.2271C590.007 86.1771 587.673 84.0361 586.902 83.4701C586.131 82.9031 582.35 79.9501 578.5 76.9071C570.168 70.3221 558.314 62.0021 557.255 61.9951C556.84 61.9931 555.15 60.7271 553.5 59.1831C551.85 57.6391 548.025 55.1501 545 53.6521C541.975 52.1541 538.15 50.0661 536.5 49.0111C534.85 47.9561 529.337 44.9881 524.25 42.4161C519.163 39.8441 515 37.3481 515 36.8701C515 36.3911 514.037 36.0001 512.86 36.0001C511.682 36.0001 508.645 35.0271 506.11 33.8381C493.037 27.7051 488.912 25.9821 482.5 23.9781C478.65 22.7741 474.082 21.1611 472.349 20.3951C470.616 19.6281 468.366 18.9861 467.349 18.9681C466.332 18.9511 464.626 18.2761 463.559 17.4681C462.491 16.6611 460.383 16.0001 458.874 16.0001C457.365 16.0001 454.866 15.5191 453.32 14.9311C451.774 14.3441 447.357 13.2051 443.505 12.4011C439.652 11.5961 433.79 10.3671 430.477 9.66805C427.165 8.97005 423.814 8.00305 423.031 7.51905C422.249 7.03605 417.534 6.30205 412.554 5.89005C407.574 5.47705 400.125 4.67205 396 4.10105C385.382 2.63005 333.534 2.95305 323 4.55605ZM390.696 31.0351C397.738 31.6051 406.65 32.7241 410.5 33.5221C414.35 34.3201 422.45 35.8861 428.5 37.0021C434.55 38.1191 441.75 39.6991 444.5 40.5151C464.981 46.5881 481.217 52.3441 493 57.7081C500.079 60.9301 520.501 71.1071 524.867 73.5871C530.251 76.6461 553.359 91.9681 553.956 92.8751C554.255 93.3291 555.625 94.2901 557 95.0101C568.143 100.848 610.576 142.607 622.5 159.471C624.15 161.804 628.487 167.94 632.139 173.107C641.451 186.282 646.357 194.728 657.138 216.143C660.362 222.547 663 228.327 663 228.989C663 229.65 663.618 231.386 664.373 232.846C666.978 237.881 669.235 243.524 671.636 251C672.961 255.125 674.439 259.4 674.922 260.5C675.405 261.6 676.519 264.975 677.398 268C678.972 273.415 679.824 277.143 682.426 290C683.15 293.575 684.23 298.525 684.827 301C686.022 305.958 687.666 317.175 689.003 329.5C690.108 339.689 689.366 393.883 688.03 400.5C687.475 403.25 686.762 407.975 686.446 411C685.802 417.162 684.735 422.076 679.497 443C677.501 450.975 675.053 459.525 674.058 462C673.063 464.475 671.324 469.2 670.194 472.5C664.992 487.688 665.013 487.636 657.922 502.5C655.036 508.55 649.823 518.343 646.337 524.262C642.852 530.182 640 535.263 640 535.553C640 536.059 636.035 541.965 635 543C633.907 544.093 630 549.955 630 550.502C630 550.822 629.531 551.628 628.958 552.292C628.385 552.956 625.798 556.269 623.208 559.654C609.451 577.636 593.766 594.394 576.243 609.83C569.355 615.899 566.74 617.957 559 623.406C557.075 624.761 553.25 627.694 550.5 629.924C547.75 632.154 544.975 633.984 544.333 633.989C543.692 633.995 543.017 634.346 542.833 634.77C542.411 635.745 531.978 642.633 528.851 644.001C527.558 644.567 525.15 645.883 523.5 646.926C520.726 648.679 515.944 651.355 508.5 655.322C503.816 657.818 494.225 662 493.184 662C491.499 662 489.764 659.08 487.376 652.23C486.087 648.528 484.381 644.15 483.586 642.5C482.791 640.85 481.173 636.8 479.99 633.5C478.808 630.2 477.426 626.719 476.92 625.764C476.414 624.809 476 623.221 476 622.236C476 621.251 475.312 619.463 474.471 618.263C473.631 617.062 471.802 612.575 470.408 608.29C469.013 604.006 467.451 600.072 466.936 599.55C466.421 599.027 466 597.852 466 596.938C466 596.024 464.681 592.368 463.069 588.813C461.457 585.258 458.923 578.671 457.437 574.175C455.951 569.679 454.345 566 453.868 566C453.39 566 453 565.136 453 564.079C453 563.023 451.425 558.424 449.5 553.86C447.575 549.295 446 544.941 446 544.185C446 543.428 445.348 541.614 444.552 540.154C442.062 535.592 439 527.821 439 526.064C439 525.139 438.339 523.509 437.532 522.441C436.724 521.374 436.049 519.782 436.032 518.904C436.014 518.026 435.387 516.001 434.637 514.404C433.887 512.807 431.593 507 429.538 501.5C427.484 496 425.213 490.375 424.493 489C423.773 487.625 422.879 484.877 422.507 482.893L421.831 479.285L430.665 473.698C451.09 460.78 468.683 441.583 478.958 421C480.742 417.425 482.654 413.643 483.206 412.596C486.601 406.155 491.703 385.379 492.984 372.784C494.212 360.698 492.893 339.055 490.413 330.595C489.621 327.897 488.697 323.96 488.359 321.845C488.021 319.73 487.352 318 486.872 318C486.392 318 486 317.082 486 315.96C486 314.838 485.1 312.156 484 310C482.9 307.844 482 305.617 482 305.052C482 304.487 479.005 298.957 475.345 292.762C464.106 273.742 451.394 260.26 433.5 248.385C423.959 242.053 405.381 233 401.929 233C400.796 233 398.886 232.474 397.684 231.83C393.876 229.791 375.936 226.934 363.5 226.387C353.486 225.946 349.266 226.266 338 228.32C321.772 231.279 316.683 232.718 307.5 236.949C295.088 242.667 293.649 243.433 287.211 247.75C283.725 250.087 280.638 252 280.351 252C279.497 252 273.071 257.907 263.878 267.142C254.529 276.534 245.842 288.879 239.7 301.5C234.939 311.285 234.442 312.461 232.94 317.5C232.284 319.7 231.116 323.348 230.346 325.607C226.159 337.876 224.85 363.526 227.536 380.685C229.734 394.722 236.621 415.176 241.747 422.89C242.986 424.754 244 426.822 244 427.485C244 428.148 244.9 429.505 246 430.5C247.1 431.495 248 432.811 248 433.423C248 434.036 249.687 436.632 251.75 439.193C253.813 441.755 256.231 444.806 257.125 445.975C263.298 454.043 274.303 463.695 286.255 471.52C296.725 478.375 298.303 479.802 297.672 481.842C296.796 484.675 290.843 500.342 289.443 503.5C288.711 505.15 286.462 511 284.444 516.5C282.426 522 280.15 527.694 279.387 529.154C278.624 530.614 278 532.469 278 533.277C278 534.615 276.208 539.229 272.418 547.651C271.638 549.384 271 551.26 271 551.82C271 552.38 270.34 554.112 269.534 555.669C268.727 557.226 266.66 562.55 264.94 567.5C263.22 572.45 260.955 578.349 259.906 580.61C258.858 582.87 258 585.367 258 586.16C258 586.952 257.613 588.027 257.141 588.55C256.669 589.072 255.018 593.1 253.472 597.5C251.927 601.9 250.244 606.05 249.732 606.722C249.221 607.394 248.432 609.419 247.979 611.222C247.145 614.541 243.107 625.002 240.538 630.5C239.767 632.15 237.909 637.1 236.409 641.5C231.919 654.671 231.386 656.014 230.168 657.232C229.526 657.874 228.993 658.873 228.985 659.45C228.976 660.028 228.579 661.117 228.101 661.871C227.398 662.981 226.118 662.675 221.366 660.263C218.14 658.624 213.025 656.108 210 654.67C206.975 653.233 200.45 649.584 195.5 646.561C190.55 643.538 185.15 640.311 183.5 639.389C177.507 636.042 164.429 627.055 161.556 624.311C159.938 622.765 156.692 620.15 154.345 618.5C143.133 610.619 126.887 595.037 110 575.969C105.875 571.311 102.271 567.275 101.991 567C101.71 566.725 100.245 564.7 98.735 562.5C95.626 557.973 90.608 551.173 88.877 549.142C86.726 546.619 80.818 537.547 75.835 529.118C70.603 520.266 54 486.88 54 485.21C54 484.67 53.328 482.94 52.506 481.364C51.685 479.789 51.01 477.739 51.006 476.809C51.003 475.879 50.589 474.864 50.087 474.554C49.585 474.244 47.992 470.055 46.547 465.245C45.102 460.435 43.544 455.808 43.084 454.962C42.624 454.115 41.913 451.415 41.505 448.962C41.097 446.508 40.142 443.285 39.382 441.8C38.622 440.314 38 437.763 38 436.13C38 434.498 37.308 430.461 36.463 427.16C35.617 423.86 34.76 419.856 34.559 418.263C34.357 416.67 33.701 412.022 33.101 407.933C29.395 382.694 28.225 358.014 30.024 343C30.584 338.325 31.445 329.55 31.936 323.5C33.016 310.202 36.947 286.806 39.161 280.5C39.74 278.85 40.557 275.7 40.975 273.5C41.989 268.175 48.993 246.753 50.115 245.55C50.602 245.028 51.015 243.903 51.034 243.05C51.053 242.197 51.937 239.7 53 237.5C54.063 235.3 54.947 233.194 54.966 232.819C54.995 232.241 58.895 223.644 65.772 209C66.676 207.075 68.223 204.306 69.208 202.846C70.194 201.386 71 199.569 71 198.808C71 198.047 72.332 195.866 73.959 193.962C75.587 192.058 76.937 190.1 76.959 189.61C77 188.72 84.155 177.838 92.209 166.415C105.152 148.062 129.694 121.57 145.632 108.749C149.409 105.71 154.075 101.778 156 100.012C159.201 97.0741 162.776 94.4961 174.383 86.7531C181.425 82.0551 182.172 81.5441 184.366 79.9201C185.54 79.0511 187.175 78.0381 188 77.6681C188.825 77.2981 192.2 75.4221 195.5 73.5001C202.093 69.6601 222.829 59.1871 227.531 57.3231C233.559 54.9331 243.559 50.8851 245.5 50.0501C249.763 48.2151 269.866 42.1361 277 40.5261C281.125 39.5941 286.525 38.2311 289 37.4971C291.475 36.7631 295.75 35.8641 298.5 35.5001C301.25 35.1361 305.031 34.3671 306.903 33.7911C317.03 30.6751 366.228 29.0571 390.696 31.0351Z" fill="#1D531C" stroke="#1D531C" stroke-width="4" mask="url(#path-2-inside-2_7_249)"/>
</svg>
