<svg width="561" height="560" viewBox="0 0 561 560" fill="none" xmlns="http://www.w3.org/2000/svg">
<path fill-rule="evenodd" clip-rule="evenodd" d="M246.399 1.18432C80.953 21.9323 -29.467 179.285 6.96504 342.389C44.928 512.348 231.31 606.343 392.559 536.85C533.586 476.072 598.911 309.722 537.609 167.48C499.686 79.4853 417.759 16.8463 321.203 2.02432C306.521 -0.229677 261.686 -0.732677 246.399 1.18432Z" fill="white"/>
<path fill-rule="evenodd" clip-rule="evenodd" d="M246.399 1.18432C80.953 21.9323 -29.467 179.285 6.96504 342.389C44.928 512.348 231.31 606.343 392.559 536.85C533.586 476.072 598.911 309.722 537.609 167.48C499.686 79.4853 417.759 16.8463 321.203 2.02432C306.521 -0.229677 261.686 -0.732677 246.399 1.18432ZM305.43 112.947C379.737 132.181 405.23 225.873 350.931 280.172C288.148 342.955 181.06 298.492 181.06 209.64C181.06 143.884 241.978 96.5233 305.43 112.947ZM299.543 340.685C364.046 347.195 420.691 386.288 450.172 444.64L456.487 457.14L450.693 462.581C356.02 551.475 204.778 551.475 110.105 462.581L104.311 457.14L110.626 444.64C146.363 373.906 221.12 332.77 299.543 340.685Z" fill="black"/>
<path fill-rule="evenodd" clip-rule="evenodd" d="M254.625 366.993L262.645 378.346H280.386H298.126L302.753 371.786C305.298 368.178 308.898 363.069 310.754 360.433L314.128 355.64H280.367H246.605L254.625 366.993ZM251.189 435.707C237.355 493.045 238.167 488.441 241.326 491.637C245.792 496.156 272.942 519.92 274.503 520.677C277.722 522.237 283.44 522.087 286.883 520.351C287.974 519.801 318.428 492.814 320.114 490.903C322.405 488.306 323.054 491.696 309.55 435.723L297.195 384.513L280.367 384.513H263.54L251.189 435.707Z" fill="black"/>
<path fill-rule="evenodd" clip-rule="evenodd" d="M254.625 366.993L262.645 378.346H280.386H298.126L302.753 371.786C305.298 368.178 308.898 363.069 310.754 360.433L314.128 355.64H280.367H246.605L254.625 366.993ZM251.189 435.707C237.355 493.045 238.167 488.441 241.326 491.637C245.792 496.156 272.942 519.92 274.503 520.677C277.722 522.237 283.44 522.087 286.883 520.351C287.974 519.801 318.428 492.814 320.114 490.903C322.405 488.306 323.054 491.696 309.55 435.723L297.195 384.513L280.367 384.513H263.54L251.189 435.707Z" fill="black"/>
<path fill-rule="evenodd" clip-rule="evenodd" d="M273.93 287.102C244.519 284.576 222.506 266.984 221.119 244.894L221 243H280H339V244.018C339 251.678 335.224 260.661 329.107 267.552C316.981 281.214 295.206 288.929 273.93 287.102Z" fill="black"/>
</svg>
