<svg width="562" height="561" viewBox="0 0 562 561" fill="none" xmlns="http://www.w3.org/2000/svg">
<path fill-rule="evenodd" clip-rule="evenodd" d="M246.399 1.18432C80.953 21.9323 -29.467 179.285 6.96504 342.389C44.928 512.348 231.31 606.343 392.559 536.85C533.586 476.072 598.911 309.722 537.609 167.48C499.686 79.4853 417.759 16.8463 321.203 2.02432C306.521 -0.229677 261.686 -0.732677 246.399 1.18432Z" fill="white"/>
<path fill-rule="evenodd" clip-rule="evenodd" d="M246.399 1.18432C80.953 21.9323 -29.467 179.285 6.96504 342.389C44.928 512.348 231.31 606.343 392.559 536.85C533.586 476.072 598.911 309.722 537.609 167.48C499.686 79.4853 417.759 16.8463 321.203 2.02432C306.521 -0.229677 261.686 -0.732677 246.399 1.18432ZM305.43 112.947C379.737 132.181 405.23 225.873 350.931 280.172C288.148 342.955 181.06 298.492 181.06 209.64C181.06 143.884 241.978 96.5233 305.43 112.947ZM299.543 340.685C364.046 347.195 420.691 386.288 450.172 444.64L456.487 457.14L450.693 462.581C356.02 551.475 204.778 551.475 110.105 462.581L104.311 457.14L110.626 444.64C146.363 373.906 221.12 332.77 299.543 340.685Z" fill="black"/>
<path fill-rule="evenodd" clip-rule="evenodd" d="M254.625 366.993L262.645 378.346H280.386H298.126L302.753 371.786C305.298 368.178 308.898 363.069 310.754 360.433L314.128 355.64H280.367H246.605L254.625 366.993ZM251.189 435.707C237.355 493.045 238.167 488.441 241.326 491.637C245.792 496.156 272.942 519.92 274.503 520.677C277.722 522.237 283.44 522.087 286.883 520.351C287.974 519.801 318.428 492.814 320.114 490.903C322.405 488.306 323.054 491.696 309.55 435.723L297.195 384.513L280.367 384.513H263.54L251.189 435.707Z" fill="black"/>
<path fill-rule="evenodd" clip-rule="evenodd" d="M254.625 366.993L262.645 378.346H280.386H298.126L302.753 371.786C305.298 368.178 308.898 363.069 310.754 360.433L314.128 355.64H280.367H246.605L254.625 366.993ZM251.189 435.707C237.355 493.045 238.167 488.441 241.326 491.637C245.792 496.156 272.942 519.92 274.503 520.677C277.722 522.237 283.44 522.087 286.883 520.351C287.974 519.801 318.428 492.814 320.114 490.903C322.405 488.306 323.054 491.696 309.55 435.723L297.195 384.513L280.367 384.513H263.54L251.189 435.707Z" fill="black"/>
<path fill-rule="evenodd" clip-rule="evenodd" d="M273.93 287.102C244.519 284.576 222.506 266.984 221.119 244.894L221 243H280H339V244.018C339 251.678 335.224 260.661 329.107 267.552C316.981 281.214 295.206 288.929 273.93 287.102Z" fill="black"/>
<path fill-rule="evenodd" clip-rule="evenodd" d="M403.765 391.31V391.82H398.107H392.448V432.257V472.693H394.46H396.473L397.643 473.877L398.814 475.059V481.964V488.868H446.911H495.008V481.851V474.835L496.302 473.764L497.595 472.693H499.485H501.374V432.257V391.82H495.716H490.057V391.31V390.8L484.929 391.27L479.801 391.74H446.911H414.021L408.893 391.27L403.765 390.8V391.31ZM337.489 393.088L335.224 394.351L334.113 396.318L333 398.286L333.194 435.327L333.388 472.37L335.295 476.094L337.204 479.818L340.871 483.035L344.539 486.251L348.362 487.56L352.184 488.868H361.353H370.521V481.851V474.835L371.815 473.764L373.108 472.693H374.998H376.887V432.257V391.82L358.32 391.823L339.753 391.825L337.489 393.088ZM516.935 432.257V472.693H518.947H520.96L522.13 473.877L523.301 475.059V481.964V488.868H532.469H541.638L545.696 487.479L549.753 486.09L553.027 483.29L556.301 480.488L558.129 477.399L559.959 474.311L560.727 470.472L561.496 466.633L561.491 433.593L561.488 400.555L560.767 398.181L560.046 395.809L557.564 393.814L555.08 391.82H536.008H516.935V432.257Z" fill="#572B18"/>
<path fill-rule="evenodd" clip-rule="evenodd" d="M411.291 365.456L410.296 366.911L407.377 378.234L404.46 389.556L404.466 390.398L404.472 391.241L408.154 391.045L411.835 390.85L414.378 380.822L416.92 370.793H446.911H476.902L479.445 380.822L481.987 390.85L485.668 391.045L489.35 391.241L489.356 390.398L489.362 389.556L486.445 378.234L483.526 366.911L482.531 365.456L481.537 364H446.911H412.285L411.291 365.456ZM343.095 518.997L343.29 552.825L344.77 554.651L346.249 556.478L348.518 557.891L350.788 559.304L354.465 559.703L358.143 560.102L450.094 559.907L542.044 559.713L544.306 558.581L546.569 557.449L548.55 555.074L550.532 552.697L550.727 519.165L550.923 485.633L550.727 485.636L550.532 485.639L546.288 487.238L542.044 488.837L532.673 488.852L523.301 488.868V493.674V498.48L522.189 499.497L521.078 500.514H520.145H519.212L518.94 505.429L518.668 510.346L517.313 511.252L515.957 512.159H508.706H501.454L500.353 510.721L499.252 509.283V504.898V500.514H497.862H496.472L495.74 499.262L495.008 498.01V493.439V488.868H446.911H398.814V493.674V498.48L397.703 499.497L396.591 500.514H395.581H394.57V505.042V509.571L393.155 510.865L391.741 512.159H384.803H377.865L376.51 511.252L375.154 510.346L374.882 505.429L374.61 500.514H373.677H372.744L371.633 499.497L370.521 498.48V493.721V488.964L360.435 488.754L350.35 488.544L346.625 486.856L342.9 485.167L343.095 518.997Z" fill="#783D24"/>
<path fill-rule="evenodd" clip-rule="evenodd" d="M372.078 474.117L371.229 474.893V486.696V498.5L372.801 499.506L374.373 500.514H384.668H394.963L396.534 499.506L398.107 498.5V486.696V474.893L397.258 474.117L396.409 473.34H384.668H372.926L372.078 474.117ZM496.564 474.117L495.716 474.893V486.696V498.5L497.288 499.506L498.86 500.514H509.155H519.449L521.021 499.506L522.593 498.5V486.696V474.893L521.745 474.117L520.896 473.34H509.155H497.413L496.564 474.117Z" fill="#FFDB82" stroke="#E3BF64" stroke-width="2"/>
<path fill-rule="evenodd" clip-rule="evenodd" d="M377.595 431.933V472.693H385.021H392.448V431.933V391.173H385.021H377.595V431.933ZM501.374 431.933V472.693H508.801H516.228V431.933V391.173H508.801H501.374V431.933ZM375.473 504.996V509.479L376.584 510.496L377.696 511.512H384.668H391.64L392.752 510.496L393.863 509.479V504.996V500.513H384.668H375.473V504.996ZM499.959 504.761V509.009L500.692 510.261L501.424 511.512H508.775H516.126L517.238 510.496L518.35 509.479V504.996V500.513H509.155H499.959V504.761Z" fill="#FDB94F" stroke="#FDB94F" stroke-width="2"/>
</svg>
