<svg width="561" height="560" viewBox="0 0 561 560" fill="none" xmlns="http://www.w3.org/2000/svg">
<path fill-rule="evenodd" clip-rule="evenodd" d="M246.399 1.18432C80.953 21.9323 -29.467 179.285 6.96504 342.389C44.928 512.348 231.31 606.343 392.559 536.85C533.586 476.072 598.911 309.722 537.609 167.48C499.686 79.4853 417.759 16.8463 321.203 2.02432C306.521 -0.229677 261.686 -0.732677 246.399 1.18432Z" fill="white"/>
<path fill-rule="evenodd" clip-rule="evenodd" d="M246.399 1.18432C80.953 21.9323 -29.467 179.285 6.96504 342.389C44.928 512.348 231.31 606.343 392.559 536.85C533.586 476.072 598.911 309.722 537.609 167.48C499.686 79.4853 417.759 16.8463 321.203 2.02432C306.521 -0.229677 261.686 -0.732677 246.399 1.18432ZM305.43 112.947C379.737 132.181 405.23 225.873 350.931 280.172C288.148 342.955 181.06 298.492 181.06 209.64C181.06 143.884 241.978 96.5233 305.43 112.947ZM299.543 340.685C364.046 347.195 420.691 386.288 450.172 444.64L456.487 457.14L450.693 462.581C356.02 551.475 204.778 551.475 110.105 462.581L104.311 457.14L110.626 444.64C146.363 373.906 221.12 332.77 299.543 340.685Z" fill="black"/>
<line x1="233" y1="261" x2="327" y2="261" stroke="black" stroke-width="12"/>
</svg>
