<svg width="562" height="561" viewBox="0 0 562 561" fill="none" xmlns="http://www.w3.org/2000/svg">
<path fill-rule="evenodd" clip-rule="evenodd" d="M247 1.54394C81.554 22.2919 -28.866 179.645 7.56599 342.749C45.529 512.708 231.911 606.703 393.16 537.21C534.187 476.432 599.512 310.082 538.21 167.84C500.287 79.8449 418.36 17.2059 321.804 2.38394C307.122 0.129942 262.287 -0.373058 247 1.54394Z" fill="white"/>
<path fill-rule="evenodd" clip-rule="evenodd" d="M247 1.54394C81.554 22.2919 -28.866 179.645 7.56599 342.749C45.529 512.708 231.911 606.703 393.16 537.21C534.187 476.432 599.512 310.082 538.21 167.84C500.287 79.8449 418.36 17.2059 321.804 2.38394C307.122 0.129942 262.287 -0.373058 247 1.54394ZM306.031 113.307C380.338 132.541 405.831 226.233 351.532 280.532C288.749 343.315 181.661 298.852 181.661 210C181.661 144.244 242.579 96.8829 306.031 113.307ZM300.144 341.045C364.647 347.555 421.292 386.648 450.773 445L457.088 457.5L451.294 462.941C356.621 551.835 205.379 551.835 110.706 462.941L104.912 457.5L111.227 445C146.964 374.266 221.721 333.13 300.144 341.045Z" fill="black"/>
</svg>
