<svg width="561" height="560" viewBox="0 0 561 560" fill="none" xmlns="http://www.w3.org/2000/svg">
<path fill-rule="evenodd" clip-rule="evenodd" d="M246.399 1.18432C80.953 21.9323 -29.467 179.285 6.96504 342.389C44.928 512.348 231.31 606.343 392.559 536.85C533.586 476.072 598.911 309.722 537.609 167.48C499.686 79.4853 417.759 16.8463 321.203 2.02432C306.521 -0.229677 261.686 -0.732677 246.399 1.18432Z" fill="white"/>
<path fill-rule="evenodd" clip-rule="evenodd" d="M246.399 1.18432C80.953 21.9323 -29.467 179.285 6.96504 342.389C44.928 512.348 231.31 606.343 392.559 536.85C533.586 476.072 598.911 309.722 537.609 167.48C499.686 79.4853 417.759 16.8463 321.203 2.02432C306.521 -0.229677 261.686 -0.732677 246.399 1.18432ZM305.43 112.947C379.737 132.181 405.23 225.873 350.931 280.172C288.148 342.955 181.06 298.492 181.06 209.64C181.06 143.884 241.978 96.5233 305.43 112.947ZM299.543 340.685C364.046 347.195 420.691 386.288 450.172 444.64L456.487 457.14L450.693 462.581C356.02 551.475 204.778 551.475 110.105 462.581L104.311 457.14L110.626 444.64C146.363 373.906 221.12 332.77 299.543 340.685Z" fill="black"/>
<path  stroke="black" stroke-width="6" fill-rule="evenodd" clip-rule="evenodd" d="M236.683 271.915L236.191 271.838L235.655 271.685L235.12 271.532L234.651 271.306L234.182 271.079L233.808 270.761L233.434 270.443L233.219 270.111L233.005 269.779L233.002 269.173L233 268.567L233.229 268.236L233.458 267.905L233.853 267.571L234.249 267.237L235.763 266.514L237.277 265.791L238.299 265.328L239.321 264.864L241.11 264.113L242.898 263.361L244.329 262.812L245.76 262.263L247.14 261.776L248.519 261.289L250.052 260.794L251.585 260.3L253.425 259.781L255.265 259.262L256.593 258.93L257.922 258.597L259.302 258.293L260.681 257.989L261.754 257.777L262.828 257.565L264.728 257.257L266.629 256.948L268.09 256.767L269.552 256.587L270.687 256.475L271.821 256.364L273.457 256.249L275.092 256.134L276.931 256.067L278.771 256L281.275 256.037L283.779 256.074L285.567 256.187L287.356 256.299L288.886 256.448L290.417 256.597L291.595 256.741L292.773 256.884L293.59 257.004L294.408 257.125L295.736 257.347L297.065 257.569L298.087 257.766L299.109 257.963L300.182 258.196L301.255 258.429L302.822 258.809L304.389 259.189L306.206 259.704L308.024 260.219L309.341 260.635L310.658 261.052L311.68 261.398L312.702 261.745L314.296 262.335L315.89 262.925L317.362 263.52L318.834 264.115L320.359 264.783L321.883 265.451L323.476 266.2L325.068 266.949L325.549 267.226L326.03 267.502L326.403 267.928L326.776 268.354L326.888 268.794L327 269.233L326.874 269.647L326.749 270.061L326.419 270.439L326.09 270.818L325.476 271.165L324.862 271.511L324.287 271.673L323.713 271.835L323.164 271.918L322.615 272H321.951H321.287L320.738 271.918L320.189 271.835L319.665 271.688L319.141 271.542L317.914 270.955L316.688 270.368L315.461 269.809L314.235 269.25L312.651 268.589L311.067 267.927L309.942 267.494L308.818 267.06L307.336 266.538L305.854 266.016L304.338 265.539L302.822 265.063L300.965 264.556L299.109 264.049L297.167 263.614L295.225 263.179L293.694 262.912L292.162 262.644L290.781 262.45L289.4 262.255L288.071 262.111L286.743 261.968L285.444 261.875L284.145 261.782L282.889 261.731L281.633 261.68L279.231 261.702L276.829 261.724L275.436 261.81L274.043 261.897L272.728 262.02L271.412 262.143L270.096 262.314L268.78 262.485L267.235 262.739L265.689 262.993L264.974 263.133L264.258 263.274L263.083 263.533L261.908 263.793L260.681 264.095L259.455 264.398L258.024 264.802L256.593 265.206L255.316 265.613L254.038 266.019L252.556 266.539L251.074 267.059L249.746 267.577L248.417 268.095L247.242 268.586L246.067 269.077L244.636 269.721L243.205 270.366L241.983 270.949L240.761 271.533L240.232 271.684L239.703 271.835L239.155 271.918L238.606 272L237.89 271.996L237.175 271.991L236.683 271.915Z" fill="black" />
</svg>
