<svg width="561" height="560" viewBox="0 0 561 560" fill="none" xmlns="http://www.w3.org/2000/svg">
<path fill-rule="evenodd" clip-rule="evenodd" d="M246.399 1.18432C80.953 21.9323 -29.467 179.285 6.96504 342.389C44.928 512.348 231.31 606.343 392.559 536.85C533.586 476.072 598.911 309.722 537.609 167.48C499.686 79.4853 417.759 16.8463 321.203 2.02432C306.521 -0.229677 261.686 -0.732677 246.399 1.18432Z" fill="white"/>
<path fill-rule="evenodd" clip-rule="evenodd" d="M246.399 1.18432C80.953 21.9323 -29.467 179.285 6.96504 342.389C44.928 512.348 231.31 606.343 392.559 536.85C533.586 476.072 598.911 309.722 537.609 167.48C499.686 79.4853 417.759 16.8463 321.203 2.02432C306.521 -0.229677 261.686 -0.732677 246.399 1.18432ZM305.43 112.947C379.737 132.181 405.23 225.873 350.931 280.172C288.148 342.955 181.06 298.492 181.06 209.64C181.06 143.884 241.978 96.5233 305.43 112.947ZM299.543 340.685C364.046 347.195 420.691 386.288 450.172 444.64L456.487 457.14L450.693 462.581C356.02 551.475 204.778 551.475 110.105 462.581L104.311 457.14L110.626 444.64C146.363 373.906 221.12 332.77 299.543 340.685Z" fill="black"/>
<path stroke="black" stroke-width="6" fill-rule="evenodd" clip-rule="evenodd" d="M236.683 256.085L236.191 256.162L235.655 256.315L235.12 256.468L234.651 256.694L234.182 256.921L233.808 257.239L233.434 257.557L233.219 257.889L233.005 258.221L233.002 258.827L233 259.433L233.229 259.764L233.458 260.095L233.853 260.429L234.249 260.763L235.763 261.486L237.277 262.209L238.299 262.672L239.321 263.136L241.11 263.887L242.898 264.639L244.329 265.188L245.76 265.737L247.14 266.224L248.519 266.711L250.052 267.206L251.585 267.7L253.425 268.219L255.265 268.738L256.593 269.07L257.922 269.403L259.302 269.707L260.681 270.011L261.754 270.223L262.828 270.435L264.728 270.743L266.629 271.052L268.09 271.233L269.552 271.413L270.687 271.525L271.821 271.636L273.457 271.751L275.092 271.866L276.931 271.933L278.771 272L281.275 271.963L283.779 271.926L285.567 271.813L287.356 271.701L288.886 271.552L290.417 271.403L291.595 271.259L292.773 271.116L293.59 270.996L294.408 270.875L295.736 270.653L297.065 270.431L298.087 270.234L299.109 270.037L300.182 269.804L301.255 269.571L302.822 269.191L304.389 268.811L306.206 268.296L308.024 267.781L309.341 267.365L310.658 266.948L311.68 266.602L312.702 266.255L314.296 265.665L315.89 265.075L317.362 264.48L318.834 263.885L320.359 263.217L321.883 262.549L323.476 261.8L325.068 261.051L325.549 260.774L326.03 260.498L326.403 260.072L326.776 259.646L326.888 259.206L327 258.767L326.874 258.353L326.749 257.939L326.419 257.561L326.09 257.182L325.476 256.835L324.862 256.489L324.287 256.327L323.713 256.165L323.164 256.082L322.615 256H321.951H321.287L320.738 256.082L320.189 256.165L319.665 256.312L319.141 256.458L317.914 257.045L316.688 257.632L315.461 258.191L314.235 258.75L312.651 259.411L311.067 260.073L309.942 260.506L308.818 260.94L307.336 261.462L305.854 261.984L304.338 262.461L302.822 262.937L300.965 263.444L299.109 263.951L297.167 264.386L295.225 264.821L293.694 265.088L292.162 265.356L290.781 265.55L289.4 265.745L288.071 265.889L286.743 266.032L285.444 266.125L284.145 266.218L282.889 266.269L281.633 266.32L279.231 266.298L276.829 266.276L275.436 266.19L274.043 266.103L272.728 265.98L271.412 265.857L270.096 265.686L268.78 265.515L267.235 265.261L265.689 265.007L264.974 264.867L264.258 264.726L263.083 264.467L261.908 264.207L260.681 263.905L259.455 263.602L258.024 263.198L256.593 262.794L255.316 262.387L254.038 261.981L252.556 261.461L251.074 260.941L249.746 260.423L248.417 259.905L247.242 259.414L246.067 258.923L244.636 258.279L243.205 257.634L241.983 257.051L240.761 256.467L240.232 256.316L239.703 256.165L239.155 256.082L238.606 256L237.89 256.004L237.175 256.009L236.683 256.085Z" fill="black"/>
</svg>
