<svg width="187" height="262" viewBox="0 0 187 262" fill="none" xmlns="http://www.w3.org/2000/svg">
<path fill-rule="evenodd" clip-rule="evenodd" d="M100.362 81.1396C96.2835 81.3294 88.4662 81.4412 82.9898 81.3878L73.0328 81.2912L73.1239 86.3757C73.1744 89.1721 73.2582 101.803 73.3104 114.446L73.4057 137.432H78.4422H83.4792L83.3652 125.749C83.2699 115.961 83.3504 113.998 83.8622 113.649C84.2393 113.391 89.0123 113.281 96.3364 113.362L108.2 113.493L108.277 108.938L108.354 104.383L105.947 104.38C104.623 104.379 99.171 104.597 93.8319 104.863C84.599 105.325 84.097 105.311 83.5572 104.573C82.8297 103.578 82.7513 91.638 83.4635 90.3076C83.9343 89.428 84.0266 89.4242 97.7147 89.7191L111.492 90.0161L111.214 88.2747C111.061 87.3171 110.815 85.3541 110.668 83.9127C110.389 81.1764 110.036 80.6269 108.624 80.7315C108.158 80.7663 104.44 80.9502 100.362 81.1396Z" fill="#E6E2D6" stroke="#E6E2D6" stroke-width="5"/>
<path fill-rule="evenodd" clip-rule="evenodd" d="M86.3794 0.172696C79.8175 0.807401 73.4556 2.89837 58.415 9.36321C39.9785 17.2873 33.498 19.4676 26.9552 19.9469C25.149 20.079 23.6715 20.232 23.6715 20.2862C23.6715 20.3405 24.8994 25.4135 26.4001 31.5597C27.9009 37.7059 29.2567 43.4496 29.4131 44.3233L29.6978 45.9121H28.1267C26.8993 45.9121 26.1379 45.5444 24.646 44.2313C22.1826 42.0628 17.5808 40.2964 10.8435 38.9321C2.16059 37.1741 1.79239 37.3216 0.591197 43.045C-0.342641 47.4955 -0.13757 56.6547 0.976342 60.2133C2.04068 63.6152 2.81478 63.9512 7.67761 63.1225C16.5982 61.6018 22.1097 59.6083 25.2583 56.764C26.7751 55.3933 27.1975 55.2336 29.3017 55.2336H31.6515L32.1294 57.458C33.7192 64.8588 38.5011 95.7623 38.5011 98.6342C38.5011 99.6485 38.3655 99.7223 36.5063 99.7223C34.8081 99.7223 34.2886 99.5062 33.0107 98.2677C30.1715 95.5166 24.3774 93.3655 15.7572 91.863C10.1758 90.8902 9.71265 91.1292 8.57586 95.567C7.47974 99.8456 7.53779 109.333 8.6839 113.266C9.79061 117.064 10.5359 117.452 15.2593 116.69C23.3389 115.388 30.0859 112.996 33.0688 110.377C34.4183 109.192 34.8771 109.044 37.18 109.044C38.6057 109.044 39.7722 109.151 39.7722 109.282C39.7722 109.414 40.1497 114.037 40.6111 119.557C41.5399 130.663 42.3076 144.233 42.3118 149.613L42.3144 153.109H40.6649C39.6391 153.109 38.929 152.884 38.7871 152.513C38.41 151.53 34.8848 149.332 31.832 148.176C28.211 146.804 20.0866 145.058 17.324 145.058C14.6979 145.058 14.2158 145.686 13.2476 150.368C11.96 156.594 13.0582 168.488 15.0555 169.948C16.0173 170.652 18.0651 170.62 22.1885 169.836C30.0821 168.337 36.6431 165.755 38.4739 163.428C39.0777 162.66 39.673 162.43 41.0564 162.43H42.8542L42.5529 174.823L42.2512 187.217L49.486 197.715L56.7202 208.213V235.106V262H89.9808H123.241V235.05V208.1L124.442 206.556C125.102 205.707 128.343 201.074 131.645 196.261L137.647 187.511V174.97V162.43H139.185C140.343 162.43 141.122 162.791 142.344 163.895C145.157 166.437 149.342 168.088 156.866 169.626C162.126 170.702 164.41 170.727 165.32 169.722C168.215 166.522 168.105 148.334 165.175 145.682C164.049 144.663 159.788 145.019 153.309 146.673C147.847 148.067 143.984 149.836 142.123 151.798C141.144 152.829 140.524 153.109 139.215 153.109H137.552L137.832 146.647C138.414 133.24 139.967 110.916 140.411 109.573C140.526 109.226 141.482 109.044 143.183 109.044C145.605 109.044 145.907 109.156 147.689 110.725C148.823 111.723 150.94 112.923 152.902 113.679C156.251 114.971 165.691 117.094 168.085 117.094C171.071 117.094 172.182 113.467 172.173 103.747C172.166 96.3966 171.438 93.0248 169.596 91.8177C168.587 91.1571 168.238 91.1601 164.204 91.863C155.677 93.3494 150.173 95.395 147.008 98.2541C145.637 99.4926 145.07 99.7223 143.382 99.7223H141.381L141.666 97.4978C143.344 84.3813 147.082 60.9552 148.169 56.7364C148.486 55.5098 148.622 55.4391 150.906 55.3187C153.161 55.1997 153.402 55.2832 154.786 56.667C156.824 58.7054 160.877 60.5383 166.084 61.7777C176.715 64.3072 177.889 64.2101 178.926 60.7175C180.606 55.0599 180.749 48.2955 179.321 41.9781C178.414 37.9618 177.706 37.536 173.057 38.2084C165.118 39.3562 158.071 41.8319 154.955 44.5686C153.836 45.5507 153.01 45.9121 151.883 45.9121C150.502 45.9121 150.365 45.813 150.563 44.9588C150.684 44.4347 151.448 41.0942 152.261 37.536C153.074 33.9782 154.313 28.7937 155.015 26.0151C155.716 23.2365 156.29 20.7616 156.29 20.5146C156.29 20.26 155.388 20.0663 154.199 20.0663C148.369 20.0663 139.831 17.2216 120.495 8.83697C103.502 1.46753 95.0864 -0.669623 86.3794 0.172696ZM110.555 81.5031C110.963 82.295 111.724 89.1581 111.481 89.8504C111.346 90.2352 107.919 90.3385 97.4642 90.2741L83.6253 90.189L83.5092 97.2953C83.4084 103.462 83.4817 104.436 84.0647 104.66C84.4346 104.801 89.9804 104.676 96.3893 104.38C103.154 104.069 108.187 104.001 108.389 104.219C108.579 104.426 108.636 106.674 108.515 109.216L108.295 113.837L97.4431 113.622C91.4744 113.504 85.9239 113.522 85.1083 113.662L83.6253 113.916V125.78V137.644L78.7527 137.672C76.0728 137.688 73.6433 137.522 73.3539 137.305C72.8671 136.939 72.8925 128.764 73.4243 114.976C73.4827 113.461 73.2713 105.371 72.9548 96.9987C72.6379 88.6259 72.5328 81.6217 72.7213 81.4332C72.9095 81.2451 79.6349 81.0349 87.6661 80.9663C110.16 80.7747 110.181 80.7752 110.555 81.5031Z" fill="#252E3F"/>
<path fill-rule="evenodd" clip-rule="evenodd" d="M154.987 26.1164C154.611 27.5137 151.863 39.2062 150.558 44.9588C150.363 45.8202 150.5 45.9121 151.979 45.9121C153.105 45.9121 153.868 45.6338 154.423 45.0207C154.867 44.5305 155.993 43.6801 156.925 43.131L158.621 42.1327L160.674 33.6121C161.803 28.9255 162.661 25.0359 162.58 24.9681C162.5 24.9004 160.867 24.7296 158.951 24.5885L155.468 24.3317L154.987 26.1164ZM179.864 42.8513C179.753 43.0322 179.867 44.7906 180.118 46.7587C180.627 50.7479 180.125 56.7212 178.949 60.6548C177.976 63.9118 177.348 64.0618 170.383 62.6996C167.298 62.0963 163.734 61.2514 162.464 60.8226C160.332 60.1032 160.183 60.0985 160.539 60.7633C161.146 61.8971 164.901 64.1161 168.089 65.2249C172.798 66.8625 182.12 68.5471 183.491 68.0082C184.859 67.4705 185.675 65.1109 186.414 59.5562C187.217 53.518 185.95 44.436 184.126 43.1585C183.179 42.495 180.217 42.2814 179.864 42.8513ZM25.5515 56.5335C23.758 58.4067 19.0235 60.5921 14.1383 61.8014C11.8079 62.378 9.51991 62.8556 9.05383 62.8615C8.58776 62.8678 7.93357 63.0458 7.59969 63.2572C6.71754 63.8152 7.71409 66.8939 9.06273 67.7773C10.0076 68.3967 10.4309 68.3971 14.0332 67.7832C22.4695 66.3452 28.2085 64.3542 31.1922 61.831C32.7282 60.532 32.7574 60.3896 32.1104 57.3728L31.6515 55.2336H29.2237C27.0671 55.2336 26.6569 55.3789 25.5515 56.5335ZM148.506 55.5696C147.732 56.822 141.461 95.7903 141.461 99.3477C141.461 99.5536 142.366 99.7172 143.473 99.7108C145.182 99.7011 145.729 99.4736 147.093 98.205L148.701 96.7106L149.951 88.1535C151.221 79.4604 153.926 63.6352 154.532 61.3569C154.84 60.1968 155.026 60.0968 157.09 59.9769L159.316 59.8481L156.809 58.2275C155.43 57.3364 154.183 56.2979 154.038 55.9204C153.836 55.3933 153.187 55.2336 151.244 55.2336C149.852 55.2336 148.62 55.3848 148.506 55.5696ZM172.598 96.2331C172.34 96.4208 172.172 99.2388 172.174 103.324C172.181 113.498 171.113 117.094 168.085 117.094C165.691 117.094 156.251 114.971 152.902 113.679C150.941 112.923 148.823 111.723 147.689 110.725C145.907 109.156 145.605 109.044 143.183 109.044C141.482 109.044 140.526 109.226 140.412 109.573C139.967 110.916 138.414 133.24 137.832 146.647L137.552 153.109L139.188 153.098C140.499 153.09 141.171 152.761 142.558 151.451L144.292 149.814L144.579 143.305C144.857 137.019 145.857 122.989 146.462 116.882L146.757 113.916L149.422 113.79C152.004 113.667 152.149 113.717 154.021 115.364C155.179 116.384 157.279 117.577 159.258 118.34C162.607 119.632 172.046 121.755 174.44 121.755C177.427 121.755 178.537 118.127 178.529 108.408C178.521 99.2947 177.315 95.8958 174.097 95.9153C173.508 95.9191 172.834 96.0619 172.598 96.2331ZM33.4535 110.064C31.2778 112.38 24.3147 115.096 17.519 116.279C14.8488 116.744 14.7861 116.785 15.0505 117.879C15.9691 121.68 16.8186 122.124 21.6725 121.342C27.0472 120.476 32.4824 118.924 35.772 117.317C39.9815 115.262 40.315 114.808 39.9552 111.63L39.6629 109.044H37.0372C34.8115 109.044 34.2658 109.199 33.4535 110.064ZM167.186 151.943C168.052 157.741 166.988 167.878 165.32 169.722C164.867 170.222 164.026 170.48 162.851 170.48C160.627 170.48 153.174 168.98 150.038 167.901C147.053 166.874 147.044 166.876 148.272 168.19C150.602 170.685 155.596 172.729 163.102 174.26C168.503 175.361 170.76 175.393 171.675 174.382C174.486 171.276 174.486 153.584 171.675 150.478C171.194 149.946 170.37 149.719 168.921 149.719H166.853L167.186 151.943ZM38.4278 163.433C36.8084 165.664 28.3429 168.954 21.8708 169.869C19.7053 170.175 19.6362 170.3 20.3027 172.7C21.0272 175.309 22.542 175.641 28.5043 174.5C33.9111 173.465 36.8343 172.627 39.8781 171.237L42.7381 169.931V166.181V162.43L40.9374 162.443C39.5544 162.454 38.9723 162.683 38.4278 163.433ZM137.647 174.97V187.511L131.645 196.261C128.343 201.074 125.102 205.707 124.442 206.556L123.241 208.1V235.05V262H126.419H129.597V237.38V212.761L130.797 211.217C131.457 210.368 134.699 205.735 138 200.922L144.003 192.171V179.631V167.091L145.592 167.087L147.181 167.083L145.062 165.861C143.897 165.189 142.481 164.142 141.917 163.534C141.155 162.716 140.47 162.43 139.268 162.43H137.647V174.97Z" fill="#B36263"/>
</svg>
