<svg width="451" height="451" viewBox="0 0 451 451" fill="none" xmlns="http://www.w3.org/2000/svg">
<path fill-rule="evenodd" clip-rule="evenodd" d="M81 2.66799C74.994 4.76599 68.994 9.19299 63.792 15.362C35.411 49.02 16.444 87.663 6.595 131.897C1.082 156.654 0.5 162.633 0.5 194.5C0.5 226.367 1.082 232.346 6.595 257.103C17.976 308.215 41.298 351.432 76.445 386.538C110.321 420.375 146.946 439.92 192 448.206C201.465 449.947 207.393 450.321 225.5 450.321C249.711 450.321 260.902 448.873 280.5 443.201C360.09 420.169 422.657 349.817 443.428 260C447.852 240.87 448.674 235.496 450.082 216.5C452.157 188.509 450.243 160.184 444.486 133.691C436.663 97.696 423.469 66.706 403.359 37.098C382.689 6.666 371.642 -1.27301 353.71 1.41599C342.531 3.09299 346.633 -1.267 215.411 148.392L93.63 287.285L89.362 278.392C83.278 265.716 79.482 254.816 76.068 240.222C71.526 220.8 71.015 216.128 71.015 194C71.015 171.814 71.52 167.229 76.132 147.5C83.009 118.084 96.18 91.666 114.521 70.5C123.98 59.583 128.172 46.549 126.082 34.548C121.894 10.498 100.959 -4.30601 81 2.66799Z" fill="#7226F4"/>
<path fill-rule="evenodd" clip-rule="evenodd" d="M250.374 221.682C192.143 288.057 144.367 342.891 144.205 343.535C143.491 346.369 168.027 359.417 183.5 364.431C198.046 369.145 207.136 370.452 225.5 370.47C244.5 370.489 252.373 369.246 269.651 363.498C301.085 353.042 330.012 330.021 349.793 299.719C372.571 264.827 383.824 219.4 380.069 177.5C378.988 165.438 375.676 147.653 372.527 137C368.933 124.843 358.712 101 357.094 101C356.629 101 308.605 155.307 250.374 221.682Z" fill="#E8E8E8"/>
</svg>
