<svg width="164" height="127" viewBox="0 0 164 127" fill="none" xmlns="http://www.w3.org/2000/svg">
<path fill-rule="evenodd" clip-rule="evenodd" d="M95.2655 2.30965C93.5633 4.3387 69.1266 90.7541 70.0241 91.5733C70.2349 91.7653 72.6782 92.5349 75.4529 93.2809C79.2099 94.2922 80.6311 94.2438 81.0169 93.0915C81.6068 91.3263 98.8715 28.1829 102.44 14.7322C104.18 8.18121 104.424 5.27679 103.375 3.62664C101.581 0.807138 97.1335 0.0846249 95.2655 2.30965Z" fill="#A2B9E2"/>
<path fill-rule="evenodd" clip-rule="evenodd" d="M111.138 19.1275C109.248 21.0175 109.607 21.8235 115.233 28.3165C118.146 31.6775 121.633 35.8235 122.983 37.5295C124.333 39.2365 128.049 43.8545 131.24 47.7915C134.783 52.1625 136.757 55.4325 136.31 56.1895C135.908 56.8705 130.789 64.1775 124.935 72.4275C107.801 96.5735 104.734 101.056 105.098 101.42C105.287 101.61 106.566 102.045 107.94 102.389C110.122 102.934 113.094 100.593 131.438 83.8815C142.988 73.3585 154.137 63.0835 156.213 61.0485L159.987 57.3485L151.713 50.2175C125.414 27.5545 113.925 17.9275 113.179 17.9275C112.716 17.9275 111.798 18.4675 111.138 19.1275ZM28.3212 37.4855C16.2852 47.7365 5.83018 56.7025 5.08718 57.4115C3.96418 58.4835 4.47018 59.3685 8.08718 62.6655C10.4802 64.8465 21.6402 75.0225 32.8872 85.2795C44.1352 95.5355 54.0352 103.92 54.8872 103.912C55.7402 103.903 57.0732 103.495 57.8492 103.003C58.9672 102.296 57.8052 100.07 52.2472 92.2695C38.9012 73.5385 28.2602 58.4225 27.5282 57.1555C27.0582 56.3425 31.7382 49.8735 40.4982 39.2275C51.0572 26.3955 53.9842 22.2245 53.2492 21.0585C52.7242 20.2275 51.8242 19.3895 51.2492 19.1975C50.6742 19.0065 40.3562 27.2355 28.3212 37.4855ZM38.0542 47.4945C33.5372 52.9145 31.1942 56.5185 31.6762 57.3045C34.4072 61.7575 42.5552 72.8695 43.1092 72.8955C43.4772 72.9135 44.0622 71.6405 44.4072 70.0675C45.2712 66.1365 50.1822 61.3815 55.4642 59.3645C59.7712 57.7195 68.2852 57.7335 73.4652 59.3945C75.2052 59.9515 75.6652 59.3955 76.7152 55.4715C78.4182 49.1045 78.3492 48.8205 75.3732 49.9525C73.9622 50.4885 69.7582 50.9275 66.0302 50.9275C57.5092 50.9275 51.3772 48.0305 48.4382 42.6165C47.3382 40.5905 46.1582 38.9315 45.8162 38.9305C45.4742 38.9285 41.9812 42.7825 38.0542 47.4945ZM118.16 44.9325C114.938 50.5745 108.049 53.9275 99.6782 53.9275H93.3512L92.3202 57.7915L91.2882 61.6565L99.9042 61.1655C107.279 60.7445 109.109 60.9745 112.603 62.7565C114.849 63.9025 117.835 66.2055 119.239 67.8735L121.792 70.9075L126.672 64.1675C129.356 60.4605 131.895 56.8575 132.315 56.1595C132.8 55.3545 130.958 52.3735 127.258 47.9765C124.057 44.1735 121.213 41.0345 120.938 41.0025C120.663 40.9695 119.413 42.7385 118.16 44.9325Z" fill="#4D6EA4" stroke="#4D6EA4" stroke-width="5"/>
<path fill-rule="evenodd" clip-rule="evenodd" d="M92.9912 1.87449C91.9202 2.94549 90.5412 5.75849 89.9262 8.12449C84.5852 28.6905 79.6512 44.6205 78.3142 45.6185C75.8232 47.4765 67.0402 49.0335 63.0492 48.3245C55.3002 46.9475 48.9382 41.3645 48.9382 35.9385C48.9382 34.7395 50.9632 31.1815 53.4382 28.0305C55.9132 24.8805 57.9382 21.9875 57.9382 21.6015C57.9382 20.7075 51.6932 14.9955 50.6742 14.9565C50.2532 14.9405 43.5372 20.4395 35.7502 27.1775C27.9622 33.9145 16.7462 43.4775 10.8262 48.4275C4.90616 53.3775 0.0341581 57.8915 0.000158107 58.4595C-0.0338419 59.0275 5.42016 64.4275 12.1202 70.4595C18.8212 76.4915 30.5842 87.1895 38.2612 94.2315L52.2182 107.036L57.5782 106.366C60.7092 105.975 62.9382 106.085 62.9382 106.63C62.9382 107.144 62.2352 109.931 61.3762 112.824C60.4872 115.816 60.0902 119.344 60.4552 121.005C61.6682 126.528 68.8492 128.893 72.4212 124.945C73.4642 123.794 77.4532 111.181 81.9462 94.8355C86.1982 79.3645 90.2982 66.3215 91.0572 65.8495C93.7032 64.2065 102.086 62.9275 106.053 63.5615C111.015 64.3555 115.774 67.4835 118.114 71.4895L119.898 74.5435L109.5 89.1745C97.8612 105.552 98.0302 103.762 107.959 105.461C111.391 106.048 112.002 105.587 131.959 87.3465C143.223 77.0525 155.026 66.3465 158.188 63.5555C161.35 60.7655 163.938 58.0205 163.938 57.4555C163.938 56.8895 162.441 55.2325 160.611 53.7725C158.781 52.3125 147.521 42.7505 135.589 32.5225C123.657 22.2955 113.622 13.9275 113.288 13.9275C112.954 13.9275 111.007 15.4395 108.961 17.2875L105.242 20.6475L111.647 28.4915C118.545 36.9395 118.904 38.5665 115.051 43.9275C111.63 48.6865 107.119 50.9275 100.957 50.9275C97.8302 50.9275 95.0312 50.6875 94.7372 50.3935C94.4432 50.0995 95.2152 46.1615 96.4522 41.6435C106.163 6.16949 106.306 5.29549 102.938 1.92749C100.39 -0.620509 95.5122 -0.64651 92.9912 1.87449ZM100.938 3.92749C102.038 5.02749 102.938 6.43549 102.938 7.05649C102.938 8.37949 85.0332 73.9645 84.3872 75.0105C83.6302 76.2345 75.4312 73.2495 75.5522 71.7945C75.8462 68.2795 93.3112 6.15849 94.5632 4.17749C96.3192 1.39749 98.3292 1.31849 100.938 3.92749ZM128.729 30.5075C136.819 37.4265 147.162 46.2965 151.713 50.2175L159.987 57.3485L156.213 61.0485C154.137 63.0835 142.988 73.3585 131.438 83.8815C113.094 100.593 110.122 102.934 107.94 102.389C106.566 102.045 105.287 101.61 105.098 101.42C104.734 101.056 107.801 96.5735 124.935 72.4275C130.789 64.1775 135.908 56.8705 136.31 56.1895C136.757 55.4325 134.783 52.1625 131.24 47.7915C128.049 43.8545 124.333 39.2365 122.983 37.5295C121.633 35.8235 118.146 31.6775 115.233 28.3165C112.321 24.9555 109.938 21.7835 109.938 21.2665C109.938 20.0995 112.046 17.9275 113.179 17.9275C113.641 17.9275 120.639 23.5885 128.729 30.5075ZM53.2492 21.0585C53.9842 22.2245 51.0572 26.3955 40.4982 39.2275C31.7382 49.8735 27.0582 56.3425 27.5282 57.1555C28.2602 58.4225 38.9012 73.5385 52.2472 92.2695C57.8052 100.07 58.9672 102.296 57.8492 103.003C57.0732 103.495 55.7402 103.903 54.8872 103.912C54.0352 103.92 44.1352 95.5355 32.8872 85.2795C21.6402 75.0225 10.4802 64.8465 8.08716 62.6655C4.47016 59.3685 3.96416 58.4835 5.08716 57.4115C12.4272 50.4075 50.4502 18.9315 51.2492 19.1975C51.8242 19.3895 52.7242 20.2275 53.2492 21.0585ZM48.4382 42.6165C51.3772 48.0305 57.5092 50.9275 66.0302 50.9275C69.7582 50.9275 73.9622 50.4885 75.3732 49.9525C78.3492 48.8205 78.4182 49.1045 76.7152 55.4715C75.6652 59.3955 75.2052 59.9515 73.4652 59.3945C68.2852 57.7335 59.7712 57.7195 55.4642 59.3645C50.1822 61.3815 45.2712 66.1365 44.4072 70.0675C44.0622 71.6405 43.4772 72.9135 43.1092 72.8955C42.5552 72.8695 34.4072 61.7575 31.6762 57.3045C31.1942 56.5185 33.5372 52.9145 38.0542 47.4945C41.9812 42.7825 45.4742 38.9285 45.8162 38.9305C46.1582 38.9315 47.3382 40.5905 48.4382 42.6165ZM127.258 47.9765C130.958 52.3735 132.8 55.3545 132.315 56.1595C131.895 56.8575 129.356 60.4605 126.672 64.1675L121.792 70.9075L119.239 67.8735C117.835 66.2055 114.849 63.9025 112.603 62.7565C109.109 60.9745 107.279 60.7445 99.9042 61.1655L91.2882 61.6565L92.3202 57.7915L93.3512 53.9275H99.6782C108.049 53.9275 114.938 50.5745 118.16 44.9325C119.413 42.7385 120.663 40.9695 120.938 41.0025C121.213 41.0345 124.057 44.1735 127.258 47.9765ZM73.9962 62.5855C74.5972 63.1865 73.5212 68.6615 71.0682 77.4815C68.9342 85.1515 66.5562 93.8175 65.7832 96.7385C65.0102 99.6595 63.9422 101.962 63.4082 101.856C61.6122 101.498 45.9382 78.5735 45.9382 76.3035C45.9382 70.8295 50.0252 64.7955 55.4382 62.2765C58.7732 60.7255 72.3622 60.9515 73.9962 62.5855Z" fill="#232A46"/>
</svg>
